<?xml version="1.0" encoding="UTF-8"?>
<svg width="201px" height="77px" viewBox="0 0 201 77" version="1.1" xmlns="http://www.w3.org/2000/svg" xmlns:xlink="http://www.w3.org/1999/xlink">
    <!-- Generator: sketchtool 51.1 (57501) - http://www.bohemiancoding.com/sketch -->
    <title>E1A5B5A2-483B-42F0-AD39-BDEE77C85069</title>
    <desc>Created with sketchtool.</desc>
    <defs></defs>
    <g id="Symbols" stroke="none" stroke-width="1" fill="none" fill-rule="evenodd">
        <g id="component/footer-desktop" transform="translate(-250.000000, -54.000000)">
            <g id="asset/logo/mRelief-tagline">
                <g transform="translate(250.000000, 54.000000)">
                    <g>
                        <path d="M188.191176,0.0393686131 L15.1566387,0.0393686131 C8.21950068,0.039299437 2.5871315,5.64036238 2.55613445,12.5698358 L2.55613445,50.4536898 C2.55613445,50.4536898 2.60680672,62.7535693 2.55613445,64.6376387 C2.45760504,68.1976861 2.33655462,73.2115602 0.337815126,76.3863577 C0.242491401,76.5290233 0.243843597,76.7153175 0.341228239,76.8565875 C0.438612881,76.9978575 0.612360866,77.0655705 0.779789916,77.0275036 C4.50420168,76.2063869 14.517605,73.456208 17.5748319,66.9266423 L188.208067,66.9266423 C195.127431,66.9188833 200.732567,61.313592 200.732563,54.4017993 L200.732563,12.5642117 C200.732563,9.24192949 199.411152,6.05576042 197.059105,3.70681586 C194.707058,1.3578713 191.5171,0.0386227034 188.191176,0.0393686131 Z" id="Shape" fill="#3369FF" fill-rule="nonzero"></path>
                        <path d="M43.504958,20.5757245 C41.6562911,20.5612953 39.8262162,20.9449408 38.1393277,21.700542 C36.6994052,22.3454542 35.4170599,23.2953657 34.3811345,24.4844653 C33.5140106,23.2852193 32.3630927,22.3191203 31.0311345,21.6724215 C29.4634634,20.9265522 27.7452171,20.5503758 26.0089496,20.5729124 C24.4169362,20.5564103 22.8373739,20.8545834 21.3611765,21.4502701 C20.272783,21.8977108 19.274268,22.5378898 18.4137395,23.3399635 L18.4137395,21.1409453 C18.4137395,20.8303355 18.1616645,20.5785365 17.8507143,20.5785365 L11.2042017,20.5785365 C10.8932514,20.5785365 10.6411765,20.8303355 10.6411765,21.1409453 L10.6411765,46.488708 C10.6411765,46.7993178 10.8932514,47.0511168 11.2042017,47.0511168 L18.1744538,47.0511168 C18.485404,47.0511168 18.737479,46.7993178 18.737479,46.488708 L18.737479,33.9526168 C18.737479,31.8604562 19.2132353,30.2716515 20.145042,29.2340073 C21.0768487,28.1963631 22.3436555,27.6845712 23.9229412,27.6845712 C26.9069748,27.6845712 28.3567647,29.5180237 28.3567647,33.2917865 L28.3567647,46.4774599 C28.3567647,46.7880696 28.6088397,47.0398686 28.9197899,47.0398686 L35.890042,47.0398686 C36.2009923,47.0398686 36.4530672,46.7880696 36.4530672,46.4774599 L36.4530672,33.9526168 C36.4530672,31.8604562 36.9288235,30.2716515 37.8606303,29.2340073 C38.792437,28.1963631 40.0733193,27.6845712 41.6835714,27.6845712 C43.0911345,27.6845712 44.2171849,28.1401223 44.957563,29.0343522 C45.6979412,29.9285821 46.1202101,31.3824088 46.1202101,33.2917865 L46.1202101,46.4774599 C46.1202101,46.7880696 46.3722851,47.0398686 46.6832353,47.0398686 L53.6534874,47.0398686 C53.9644376,47.0398686 54.2165126,46.7880696 54.2165126,46.4774599 L54.2165126,32.1613449 C54.2165126,28.3397774 53.2340336,25.4124398 51.300042,23.4890018 C49.3660504,21.5655639 46.7676891,20.5757245 43.504958,20.5757245 Z" id="Shape" fill="#FFFFFF" fill-rule="nonzero"></path>
                        <path d="M80.5266807,35.7129562 C82.6227777,34.8064598 84.4166916,33.3217851 85.6980672,31.4330255 C86.9592437,29.534896 87.5982773,27.2458923 87.5982773,24.6278796 C87.5982773,22.0098668 86.9676891,19.7152391 85.7234034,17.7974252 C84.4109293,15.8256994 82.5524804,14.2780362 80.3746639,13.3431478 C78.0803361,12.3083157 75.3440336,11.7824635 72.2417647,11.7824635 L57.5130252,11.7824635 C57.202075,11.7824635 56.95,12.0342625 56.95,12.3448723 L56.95,46.4746478 C56.95,46.7852576 57.202075,47.0370566 57.5130252,47.0370566 L64.8576891,47.0370566 C65.1686393,47.0370566 65.4207143,46.7852576 65.4207143,46.4746478 L65.4207143,37.3355055 L72.5373529,37.3355055 L79.105042,46.7980328 C79.210554,46.9519521 79.3856043,47.0435949 79.5723529,47.0426807 L87.3505462,47.0426807 C87.5643251,47.0464634 87.7618012,46.9289621 87.860275,46.739384 C87.9587488,46.5498059 87.9412249,46.3208701 87.815042,46.1484507 L80.5266807,35.7129562 Z M77.1992017,28.9640511 C75.9830672,29.987635 74.1644958,30.5078631 71.7997899,30.5078631 L65.4235294,30.5078631 L65.4235294,18.7675803 L71.7997899,18.7675803 C74.1644958,18.7675803 75.9830672,19.2793723 77.2020168,20.288896 C78.4209664,21.2984197 79.0205882,22.7522464 79.0205882,24.6391277 C79.0205882,26.5260091 78.4097059,27.9460912 77.1992017,28.9640511 Z" id="Shape" fill="#FFFFFF" fill-rule="nonzero"></path>
                        <path d="M109.674496,22.1926496 C105.298286,19.9925252 100.131798,20.0197095 95.7790336,22.2657628 C93.7216991,23.3662808 92.0074922,25.0114797 90.8244118,27.0209288 C89.6147082,29.0954231 88.9919683,31.459244 89.0227311,33.8598193 C88.9861217,36.2733245 89.6184336,38.6499269 90.8497479,40.7268303 C92.0949729,42.7652156 93.8968835,44.4061344 96.0436555,45.456688 C98.2704202,46.5815055 100.865966,47.1579745 103.757101,47.1579745 C108.261303,47.1579745 111.78021,45.8335018 114.201218,43.2211131 C114.391543,43.0144798 114.391543,42.6966151 114.201218,42.4899818 L110.721723,38.7218431 C110.619944,38.6124088 110.477141,38.5502553 110.327605,38.5503084 C110.19172,38.5511855 110.060737,38.6011242 109.958824,38.6909106 C109.213009,39.3738797 108.348682,39.91516 107.408319,40.2881515 C106.299896,40.6894425 105.127335,40.8848141 103.948529,40.8646204 C102.07084,40.8646204 100.483109,40.4146934 99.227563,39.5288996 C98.0648908,38.7197218 97.2372288,37.5150777 96.8994538,36.1403869 L115.611597,36.1403869 C115.893752,36.1383181 116.127364,35.9208453 116.149286,35.6398431 C116.256261,34.2563175 116.267521,34.0201058 116.267521,33.9526168 C116.267521,31.2811752 115.676345,28.890938 114.513697,26.8775146 C113.38131,24.8865454 111.702122,23.260912 109.674496,22.1926496 Z M96.7840336,31.4442737 C96.9963405,30.0668728 97.6953983,28.8109441 98.7546218,27.9039106 C99.9107687,26.97184 101.362781,26.4840433 102.847815,26.5288212 C104.322226,26.4926515 105.759669,26.9922579 106.893151,27.9348431 C107.942757,28.8402818 108.640286,30.0855015 108.863739,31.4527099 L96.7840336,31.4442737 Z" id="Shape" fill="#FFFFFF" fill-rule="nonzero"></path>
                        <path d="M131.058193,40.4062573 C131.004869,40.4066195 130.951839,40.4141869 130.900546,40.4287536 C130.329544,40.6059148 129.736116,40.7006079 129.138277,40.709958 C128.40916,40.709958 127.924958,40.513115 127.660336,40.1053686 C127.395714,39.6976223 127.223992,38.9018139 127.223992,37.8276131 L127.223992,8.66953102 C127.223992,8.35892124 126.971917,8.10712226 126.660966,8.10712226 L119.623151,8.10712226 C119.312201,8.10712226 119.060126,8.35892124 119.060126,8.66953102 L119.060126,39.2645675 C119.085462,41.9556934 119.659748,43.9494325 120.749202,45.1923558 C121.875252,46.4774599 123.721975,47.127042 126.213361,47.127042 C127.111663,47.1233072 128.005756,47.0042252 128.873655,46.7727245 C129.595676,46.598274 130.288754,46.3207779 130.931513,45.9487956 C131.081011,45.8551701 131.177923,45.6969502 131.193319,45.521365 L131.626849,41.0220949 C131.643668,40.8629982 131.591861,40.7042756 131.484395,40.5856564 C131.37693,40.4670373 131.223978,40.3997486 131.063824,40.4006332 L131.058193,40.4062573 Z" id="Shape" fill="#FFFFFF" fill-rule="nonzero"></path>
                        <path d="M141.978067,9.34723358 C141.046261,8.5204927 139.827311,8.10149818 138.355,8.10149818 C136.882689,8.10149818 135.660924,8.54017701 134.729118,9.40066241 C133.829411,10.2359507 133.318264,11.4075625 133.318264,12.6345128 C133.318264,13.8614631 133.829411,15.0330748 134.729118,15.8683631 C135.658109,16.7316606 136.879874,17.1675274 138.355,17.1675274 C139.830126,17.1675274 141.049076,16.7232245 141.980882,15.8430547 C142.90857,14.9760191 143.42082,13.7541063 143.388445,12.4854745 C143.409397,11.2818378 142.892397,10.1314591 141.978067,9.34723358 Z" id="Shape" fill="#FFFFFF" fill-rule="nonzero"></path>
                        <rect id="Rectangle-path" fill="#FFFFFF" fill-rule="nonzero" x="134.264622" y="19.8558412" width="8.1807563" height="27.1840274" rx="0.568032847"></rect>
                        <path d="M172.378613,33.9554288 C172.378613,31.2839872 171.787437,28.89375 170.621975,26.8803266 C169.49077,24.8887114 167.81256,23.2621034 165.785588,22.1926496 C161.409378,19.9925252 156.24289,20.0197095 151.890126,22.2657628 C149.83676,23.3667025 148.127211,25.0121053 146.94958,27.0209288 C145.739876,29.0954231 145.117136,31.459244 145.147899,33.8598193 C145.11129,36.2733245 145.743602,38.6499269 146.974916,40.7268303 C148.220141,42.7652156 150.022052,44.4061344 152.168824,45.456688 C154.395588,46.5815055 156.988319,47.1579745 159.879454,47.1579745 C164.383655,47.1579745 167.905378,45.8335018 170.326387,43.2211131 C170.515376,43.0139611 170.515376,42.6971338 170.326387,42.4899818 L166.844076,38.7218431 C166.743165,38.6128412 166.601401,38.5506961 166.452773,38.5503084 C166.316888,38.5511855 166.185905,38.6011242 166.083992,38.6909106 C165.338177,39.3738797 164.47385,39.91516 163.533487,40.2881515 C162.424999,40.689197 161.252484,40.884561 160.073697,40.8646204 C158.196008,40.8646204 156.608277,40.4146934 155.352731,39.5288996 C154.189375,38.7198423 153.360776,37.515291 153.021807,36.1403869 L171.722689,36.1403869 C172.005399,36.138437 172.239883,35.9212882 172.263193,35.6398431 C172.364538,34.2506934 172.378613,34.0257299 172.378613,33.9554288 Z M152.897941,31.4442737 C153.109048,30.0664622 153.808323,28.8101422 154.868529,27.9039106 C156.024188,26.970952 157.47654,26.4830413 158.961723,26.5288212 C160.435374,26.4920504 161.872138,26.9917689 163.004244,27.9348431 C164.05385,28.8402818 164.751379,30.0855015 164.974832,31.4527099 L152.897941,31.4442737 Z" id="Shape" fill="#FFFFFF" fill-rule="nonzero"></path>
                        <path d="M187.788613,14.577635 C188.724276,14.5627221 189.646827,14.7986909 190.460168,15.2609617 C190.545383,15.3112883 190.642689,15.3375322 190.741681,15.3368869 C190.981522,15.3387487 191.196213,15.1886294 191.276555,14.962885 L193.061345,10.0446204 C193.156319,9.79197958 193.05826,9.50756419 192.827689,9.36691788 C192.071991,8.93374448 191.25469,8.6179917 190.403866,8.4305073 C189.302157,8.17313044 188.17403,8.04571805 187.042605,8.05088139 C183.715126,8.05088139 181.091429,8.9760438 179.250336,10.7982482 C177.409244,12.6204526 176.477437,15.1147354 176.477437,18.2079836 L176.477437,19.200635 L172.905042,19.200635 C172.594092,19.200635 172.342017,19.452434 172.342017,19.7630438 L172.342017,25.0046934 C172.342017,25.3153032 172.594092,25.5671022 172.905042,25.5671022 L176.474622,25.5671022 L176.474622,43.4741971 C176.474622,44.5455858 176.457731,45.3132737 176.170588,45.7491405 C175.883445,46.1850073 175.41895,46.356542 174.689832,46.356542 C174.092929,46.3470397 173.500451,46.252347 172.930378,46.0753376 C172.878082,46.060977 172.824149,46.0534158 172.769916,46.0528412 C172.611043,46.0532163 172.459722,46.1206231 172.353277,46.2384361 C172.244547,46.3562585 172.191295,46.5148168 172.206891,46.6743029 L172.64042,51.173573 C172.656451,51.3496832 172.754468,51.5080067 172.905042,51.6010036 C173.546785,51.9730192 174.23894,52.2505253 174.960084,52.4249325 C175.83245,52.658395 176.73133,52.7784294 177.634454,52.782062 C180.12584,52.782062 181.964118,52.1324799 183.098613,50.8473759 C184.188067,49.6157007 184.756723,47.7541277 184.787689,45.2851533 C184.787689,45.2710931 184.663824,25.5783504 184.663824,25.5783504 L190.772647,25.5783504 C191.083597,25.5783504 191.335672,25.3265514 191.335672,25.0159416 L191.335672,19.7686679 C191.335672,19.4580581 191.083597,19.2062591 190.772647,19.2062591 L184.663824,19.2062591 L184.663824,18.2642245 C184.652563,15.7811898 185.542143,14.577635 187.788613,14.577635 Z" id="Shape" fill="#FFFFFF" fill-rule="nonzero"></path>
                        <path d="M15.5563866,55.0176369 C15.0646823,54.8417966 14.5626481,54.6962346 14.0531092,54.5817701 C13.5435714,54.4608522 13.1297479,54.3483704 12.820084,54.2443248 C12.5473232,54.1565951 12.2973723,54.0096696 12.0881513,53.8140821 C11.8965794,53.628192 11.7940692,53.3691251 11.8066387,53.102635 C11.8032596,52.7086572 11.9991196,52.3395745 12.327437,52.1212318 C12.8120422,51.8315711 13.3745672,51.6989527 13.9376891,51.7416058 C14.7344511,51.7460958 15.5142421,51.9719876 16.1897899,52.394 L16.2798739,52.4530529 L16.6514706,51.6094398 L16.5895378,51.5672591 C16.2134811,51.3263188 15.8022721,51.1451296 15.3705882,51.0301588 C14.903515,50.9034387 14.4216835,50.8391388 13.9376891,50.8389398 C13.3355366,50.8206913 12.73596,50.9249761 12.1754202,51.1454526 C11.7430649,51.3159404 11.3701863,51.6092241 11.1028571,51.9890657 C10.8723982,52.3323969 10.7507606,52.7370849 10.7537815,53.1504398 C10.7305081,53.6055973 10.8826197,54.0523761 11.1788655,54.3989872 C11.453577,54.7007372 11.7960966,54.93301 12.1782353,55.0766898 C12.6769694,55.2545431 13.185457,55.403824 13.7012185,55.5238047 C14.1151251,55.614468 14.5238985,55.7271096 14.9257983,55.86125 C15.1921154,55.949864 15.4367256,56.0935948 15.6436555,56.2830566 C15.8354053,56.4676636 15.9380244,56.7259805 15.9251681,56.9916916 C15.9265535,57.3797636 15.727579,57.7411393 15.3987395,57.9477865 C14.9043483,58.2364098 14.3344211,58.3696718 13.7631513,58.3302245 C13.2419784,58.3301867 12.724766,58.2397974 12.2345378,58.0630803 C11.7982964,57.9183429 11.3973866,57.6836172 11.0578151,57.3741296 L10.9705462,57.2897682 L10.5342017,58.1136971 L10.5820588,58.1615018 C10.9681656,58.5242982 11.4337694,58.791992 11.9417647,58.94325 C12.5285067,59.141057 13.1438982,59.240818 13.7631513,59.2385146 C14.3682978,59.2544762 14.9707431,59.1522682 15.5366807,58.9376259 C15.9702479,58.7636606 16.3431767,58.4664263 16.6092437,58.0827646 C16.8443653,57.7401467 16.9691047,57.3339611 16.9667647,56.9185785 C16.9945502,56.4682645 16.8484628,56.0244439 16.5585714,55.6784672 C16.2815033,55.3821507 15.9380476,55.1556796 15.5563866,55.0176369 Z" id="Shape" fill="#FFFFFF" fill-rule="nonzero"></path>
                        <rect id="Rectangle-path" fill="#FFFFFF" fill-rule="nonzero" x="18.737479" y="52.8973558" width="1.03315126" height="6.24554927"></rect>
                        <path d="M19.2582773,50.405885 C19.0695019,50.4024278 18.8871344,50.4742828 18.7515546,50.6055401 C18.6199507,50.7250371 18.5452641,50.8946864 18.5460504,51.0723394 C18.543041,51.2545125 18.6177658,51.4293611 18.7515546,51.5531989 C18.8871344,51.6844562 19.0695019,51.7563113 19.2582773,51.752854 C19.4472233,51.7572613 19.6299449,51.6852667 19.765,51.5531989 C19.9009848,51.4259725 19.976674,51.2471738 19.9733193,51.0610912 C19.9733023,50.8838295 19.8975068,50.7150111 19.765,50.597104 C19.6272533,50.4702248 19.4456007,50.4016755 19.2582773,50.405885 Z" id="Shape" fill="#FFFFFF" fill-rule="nonzero"></path>
                        <path d="M27.1744118,53.8787591 C26.9252028,53.579496 26.6140277,53.3377359 26.2623109,53.1701241 C25.7962549,52.9530728 25.2872943,52.8435114 24.7731092,52.8495511 C24.1971286,52.8424047 23.6277433,52.9725451 23.1121849,53.229177 C22.1156861,53.7290919 21.4949276,54.755995 21.5160084,55.8696861 C21.5090848,56.4241585 21.6572815,56.9695488 21.9439076,57.4444307 C22.227158,57.9070471 22.6335962,58.2818851 23.1178151,58.5270675 C23.6304413,58.7868457 24.1983281,58.9190146 24.7731092,58.9123175 C25.2761359,58.918494 25.7742408,58.8128346 26.2313445,58.6029927 C26.5813282,58.4426916 26.8917507,58.2074896 27.1406303,57.914042 L27.1406303,58.4173978 C27.1406303,59.1429051 26.9604622,59.6800055 26.6057563,60.0174507 C26.2510504,60.354896 25.6767647,60.5292427 24.9166807,60.5292427 C24.4605066,60.5302938 24.0071254,60.4581361 23.5738655,60.3155274 C23.1800067,60.1879391 22.8140863,59.9865692 22.4956723,59.7221861 L22.4168487,59.6546971 L21.8819748,60.4280091 L21.9439076,60.481438 C22.3258014,60.8052735 22.7718903,61.0448436 23.2529412,61.1844489 C23.7995057,61.3554278 24.3692865,61.4408014 24.9420168,61.4375328 C26.017395,61.4375328 26.8337815,61.1788248 27.3742857,60.6698449 C27.9147899,60.160865 28.1878571,59.3650566 28.1878571,58.3133522 L28.1878571,52.8973558 L27.1884874,52.8973558 L27.1744118,53.8787591 Z M26.8703782,56.9720073 C26.6742344,57.2963153 26.3902269,57.558564 26.0511765,57.7284471 C25.6813909,57.9157668 25.272172,58.012175 24.857563,58.0096515 C24.4446808,58.0128106 24.0371389,57.9163424 23.6695798,57.7284471 C23.3326898,57.5575735 23.0507492,57.2954316 22.8560084,56.9720073 C22.4659023,56.2867783 22.4659023,55.4469698 22.8560084,54.7617409 C23.0497591,54.438918 23.3321046,54.1783515 23.6695798,54.0109252 C24.4244987,53.6508485 25.3018878,53.6508485 26.0568067,54.0109252 C26.3921828,54.1813784 26.6737725,54.4412474 26.8703782,54.7617409 C27.2606112,55.4449301 27.2606112,56.283194 26.8703782,56.9663832 L26.8703782,56.9720073 Z" id="Shape" fill="#FFFFFF" fill-rule="nonzero"></path>
                        <path d="M33.8715966,52.8495511 C33.3630943,52.839875 32.8592266,52.9476597 32.3992857,53.1645 C32.0725704,53.3188321 31.7841459,53.543557 31.5547479,53.8225182 L31.5547479,52.8973558 L30.5553782,52.8973558 L30.5553782,59.1429051 L31.5913445,59.1429051 L31.5913445,55.8696861 C31.5577296,55.2995245 31.7614837,54.740832 32.1543697,54.3258741 C32.5734509,53.9375375 33.1317796,53.7347311 33.7026891,53.7634653 C34.1936563,53.732905 34.6760748,53.9023275 35.0398739,54.2330766 C35.3716486,54.6125913 35.5387539,55.1083001 35.5043697,55.6109781 L35.5043697,59.137281 L36.537521,59.137281 L36.537521,55.5350529 C36.537521,54.6689434 36.292605,53.996865 35.8084034,53.5385018 C35.2766912,53.066616 34.5822177,52.8195816 33.8715966,52.8495511 Z" id="Shape" fill="#FFFFFF" fill-rule="nonzero"></path>
                        <path d="M47.0379412,56.1705748 C47.0674034,56.7434905 46.864435,57.3040837 46.474916,57.725635 C46.0719783,58.1125011 45.527007,58.3160056 44.9688235,58.2880438 C44.4781667,58.3200171 43.995553,58.1515409 43.6316387,57.8212445 C43.2972788,57.4387522 43.1300176,56.9385305 43.1671429,56.4320949 L43.1671429,52.8973558 L42.1339916,52.8973558 L42.1339916,56.505208 C42.1339916,57.3797536 42.3817227,58.0546442 42.8743697,58.5130073 C43.4306374,58.9924982 44.1505751,59.2392652 44.8843697,59.201958 C45.3650855,59.2104647 45.8405865,59.1013736 46.2694118,58.8841971 C46.5764623,58.727746 46.8462436,58.5071703 47.0604622,58.237427 L47.0604622,59.1429051 L48.0570168,59.1429051 L48.0570168,52.8973558 L47.0238655,52.8973558 L47.0379412,56.1705748 Z" id="Shape" fill="#FFFFFF" fill-rule="nonzero"></path>
                        <path d="M55.4579832,53.2488613 C54.9502891,52.9797534 54.3830197,52.8424427 53.8083193,52.8495511 C53.3014654,52.8422614 52.800312,52.9570436 52.3472689,53.1841843 C52.0058991,53.3579715 51.7055184,53.6024227 51.4661345,53.9012555 L51.4661345,52.8973558 L50.4695798,52.8973558 L50.4695798,61.381292 L51.5027311,61.381292 L51.5027311,58.1868102 C51.743841,58.478824 52.0441446,58.7165037 52.3838655,58.8841971 C52.8272672,59.0999502 53.3151562,59.2087864 53.8083193,59.201958 C54.385002,59.2107455 54.9545037,59.0733633 55.4636134,58.8026478 C55.9473843,58.5436905 56.3483637,58.1538702 56.6206303,57.6778303 C57.179742,56.6452537 57.179742,55.4006313 56.6206303,54.3680547 C56.3469811,53.8925546 55.9437981,53.5044406 55.4579832,53.2488613 Z M55.7141597,57.208219 C55.5257746,57.5469969 55.2445066,57.8250303 54.9034034,58.0096515 C54.1776765,58.3844043 53.3150966,58.3844043 52.5893697,58.0096515 C52.2498715,57.8248072 51.9704785,57.546696 51.7842437,57.208219 C51.5891521,56.8426558 51.4921658,56.432853 51.5027311,56.0187245 C51.4918213,55.6072485 51.5888722,55.2000812 51.7842437,54.8376661 C51.9729415,54.501047 52.2517229,54.2235445 52.5893697,54.0362336 C53.3123327,53.6502949 54.1804404,53.6502949 54.9034034,54.0362336 C55.2412643,54.2229582 55.5208754,54.4993436 55.7113445,54.834854 C55.906716,55.1972691 56.0037669,55.6044365 55.9928571,56.0159124 C56.0039115,56.4309879 55.9069106,56.8418214 55.7113445,57.208219 L55.7141597,57.208219 Z" id="Shape" fill="#FFFFFF" fill-rule="nonzero"></path>
                        <path d="M63.5261345,51.4828978 C63.736187,51.2951906 64.0135786,51.200798 64.2946639,51.2213777 C64.6112609,51.2102674 64.9218392,51.3097028 65.1729832,51.5025821 L65.2630672,51.5756953 L65.6318487,50.7939471 L65.5755462,50.7489544 C65.398432,50.6109429 65.1955382,50.5096071 64.9787395,50.4508777 C64.7445624,50.3830466 64.5018901,50.3489582 64.2580672,50.3496442 C63.7191847,50.3178458 63.1896834,50.5008951 62.7857563,50.8586241 C62.4275758,51.226724 62.2380167,51.7265713 62.2621429,52.2393376 L62.2621429,52.8973558 L61.1360924,52.8973558 L61.1360924,53.7690894 L62.2621429,53.7690894 L62.2621429,59.1429051 L63.2952941,59.1429051 L63.2952941,53.7690894 L65.212395,53.7690894 L65.212395,52.8973558 L63.2727731,52.8973558 L63.2727731,52.2730821 C63.2503717,51.9867075 63.3413435,51.7029845 63.5261345,51.4828978 Z" id="Shape" fill="#FFFFFF" fill-rule="nonzero"></path>
                        <path d="M70.6202521,53.2544854 C69.559505,52.712733 68.3028479,52.712733 67.2421008,53.2544854 C66.7512222,53.5137166 66.3412043,53.9028558 66.0569328,54.3793029 C65.4790945,55.3950396 65.4790945,56.6395972 66.0569328,57.6553339 C66.3426697,58.1306092 66.7523189,58.5193984 67.2421008,58.7801515 C68.3007955,59.3303512 69.5615574,59.3303512 70.6202521,58.7801515 C71.1095746,58.5207988 71.5177409,58.1315679 71.7997899,57.6553339 C72.3660449,56.6365699 72.3660449,55.3980669 71.7997899,54.3793029 C71.5183204,53.9026094 71.1100073,53.5132386 70.6202521,53.2544854 Z M70.9017647,57.208219 C70.7184629,57.5469738 70.4407487,57.8253607 70.1022689,58.0096515 C69.3744542,58.3839908 68.5104198,58.3839908 67.782605,58.0096515 C67.4431068,57.8248072 67.1637138,57.546696 66.977479,57.208219 C66.5870165,56.4641764 66.5870165,55.5760846 66.977479,54.832042 C67.1637138,54.4935649 67.4431068,54.2154537 67.782605,54.0306095 C68.5093801,53.6520087 69.3754939,53.6520087 70.1022689,54.0306095 C70.4401009,54.2135298 70.7170216,54.4911248 70.8989496,54.8292299 C71.2837183,55.5756551 71.2837183,56.4617938 70.8989496,57.208219 L70.9017647,57.208219 Z" id="Shape" fill="#FFFFFF" fill-rule="nonzero"></path>
                        <path d="M75.7268908,53.1729361 C75.4228323,53.3297303 75.161863,53.5585526 74.9668067,53.8393905 L74.9668067,52.8973558 L73.9702521,52.8973558 L73.9702521,59.1429051 L75.0034034,59.1429051 L75.0034034,55.9596715 C74.9683758,55.3811476 75.1613646,54.8118986 75.5410924,54.3736788 C75.9362113,53.9853312 76.4767999,53.7811736 77.0302941,53.8112701 L77.3286975,53.8281423 L77.3286975,52.843927 L77.2386134,52.843927 C76.715481,52.829825 76.1967344,52.9427242 75.7268908,53.1729361 Z" id="Shape" fill="#FFFFFF" fill-rule="nonzero"></path>
                        <path d="M85.6107983,55.8978066 C85.2089867,55.7818672 84.8011213,55.6879919 84.3890336,55.6166022 C83.9864706,55.5463011 83.6655462,55.4816241 83.4403361,55.4169471 C83.2390535,55.3664423 83.0521575,55.2702096 82.8942017,55.1357427 C82.7557276,55.0130687 82.6810567,54.8338477 82.6915126,54.6492591 C82.6902895,54.3819627 82.8319497,54.1343287 83.0631092,53.999677 C83.4230257,53.8012619 83.8324923,53.7104774 84.2426471,53.7381569 C84.8818729,53.7220132 85.5113103,53.8973184 86.049958,54.2415128 L86.1315966,54.2977536 L86.5932773,53.4794489 L86.520084,53.4316442 C86.1998834,53.2386124 85.8512197,53.0972119 85.4869328,53.0126496 C85.080588,52.9070675 84.662513,52.8532119 84.2426471,52.8523631 C83.5753889,52.8148077 82.9135691,52.9911654 82.3536975,53.355719 C81.9140486,53.650346 81.651805,54.1457394 81.6555462,54.6745675 C81.6344791,55.0478751 81.7631339,55.4141904 82.0130672,55.6925274 C82.2435566,55.936279 82.5351597,56.1139621 82.857605,56.2071314 C83.26725,56.3258942 83.6837105,56.4198004 84.1047059,56.4883358 C84.4118172,56.5340113 84.7162805,56.5959637 85.0168067,56.6739307 C85.2145752,56.7291397 85.3986561,56.8249102 85.5573109,56.955135 C85.6893384,57.0676458 85.7620456,57.2346892 85.7543697,57.4078741 C85.7625556,57.6784178 85.619295,57.9310175 85.3827731,58.0630803 C85.0031066,58.2535786 84.5792917,58.3390255 84.1553782,58.3105401 C83.740848,58.310859 83.3287486,58.2473096 82.9336134,58.1221332 C82.5866534,58.0207081 82.2599442,57.859911 81.9680252,57.6468978 L81.8863866,57.5850328 L81.4106303,58.3864653 L81.472563,58.4370821 C81.8077251,58.6959196 82.1902192,58.8869572 82.5986134,58.9994909 C83.0831177,59.1468134 83.5869947,59.2207482 84.0934454,59.2188303 C84.783827,59.2567651 85.4698697,59.0883792 86.0640336,58.7351588 C86.5255221,58.4478365 86.8022877,57.9397432 86.7931513,57.3966259 C86.8117895,57.0353335 86.6862582,56.6813991 86.4440756,56.4124106 C86.2168829,56.1701378 85.9293062,55.9925401 85.6107983,55.8978066 Z" id="Shape" fill="#FFFFFF" fill-rule="nonzero"></path>
                        <path d="M92.7105462,53.2544854 C91.6500223,52.7118081 90.3929189,52.7118081 89.332395,53.2544854 C88.8415163,53.5137166 88.4314984,53.9028558 88.1472269,54.3793029 C87.5693886,55.3950396 87.5693886,56.6395972 88.1472269,57.6553339 C88.4321797,58.1312368 88.8420256,58.5202128 89.332395,58.7801515 C90.3910897,59.3303512 91.6518515,59.3303512 92.7105462,58.7801515 C93.1987619,58.5192691 93.6065566,58.1303925 93.890084,57.6553339 C94.456339,56.6365699 94.456339,55.3980669 93.890084,54.3793029 C93.6090825,53.9022387 93.2006505,53.5127544 92.7105462,53.2544854 Z M92.9920588,57.208219 C92.8097752,57.5467756 92.5330138,57.8251877 92.1953782,58.0096515 C91.4668044,58.3849568 90.6014729,58.3849568 89.8728992,58.0096515 C89.5348178,57.8238759 89.2565675,57.5459302 89.0705882,57.208219 C88.6801257,56.4641764 88.6801257,55.5760846 89.0705882,54.832042 C89.2565675,54.4943307 89.5348178,54.2163851 89.8728992,54.0306095 C90.600664,53.651989 91.4676133,53.651989 92.1953782,54.0306095 C92.5298967,54.2176362 92.8035153,54.496812 92.9836134,54.834854 C93.3702654,55.5808222 93.3702654,56.4678749 92.9836134,57.2138431 L92.9920588,57.208219 Z" id="Shape" fill="#FFFFFF" fill-rule="nonzero"></path>
                        <path d="M97.5835294,54.0306095 C97.9488288,53.8393509 98.3563163,53.7426665 98.7686975,53.7494051 C99.1156459,53.746057 99.4589762,53.8200276 99.7736975,53.9659325 C100.078068,54.1096981 100.338514,54.3319997 100.528151,54.6098905 L100.578824,54.6830036 L101.364244,54.1712117 L101.316387,54.0952865 C101.062637,53.6918318 100.698157,53.3697223 100.266345,53.167312 C99.7968356,52.9522388 99.2851631,52.8446363 98.7686975,52.8523631 C98.1727907,52.8432866 97.5838699,52.9814203 97.0542857,53.2544854 C96.5615074,53.5131189 96.1495217,53.9022769 95.8634874,54.3793029 C95.5721541,54.8750916 95.4222276,55.4410767 95.429958,56.0159124 C95.4225412,56.5933749 95.5723925,57.1619921 95.8634874,57.660958 C96.1482508,58.1390018 96.5605611,58.5284664 97.0542857,58.7857755 C97.5836187,59.0598154 98.1725528,59.1989183 98.7686975,59.1907099 C99.2832597,59.1975047 99.7928966,59.0899257 100.260714,58.8757609 C100.694598,58.6742471 101.061124,58.3520572 101.316387,57.9477865 L101.364244,57.8718613 L100.578824,57.3656934 L100.528151,57.4388066 C100.340127,57.7149869 100.080256,57.9347118 99.7765126,58.0743285 C99.4598769,58.2168534 99.1159772,58.2888205 98.7686975,58.2852318 C98.3563163,58.2919704 97.9488288,58.195286 97.5835294,58.0040274 C97.2425278,57.8208507 96.9604481,57.5449298 96.769958,57.208219 C96.3794635,56.4621961 96.3794635,55.5724407 96.769958,54.8264179 C96.9586854,54.4883581 97.2412147,54.2119974 97.5835294,54.0306095 Z" id="Shape" fill="#FFFFFF" fill-rule="nonzero"></path>
                        <path d="M103.529076,50.405885 C103.340244,50.402114 103.15776,50.474015 103.022353,50.6055401 C102.89,50.7247455 102.814321,50.8943259 102.814034,51.0723394 C102.812104,51.2548751 102.887821,51.4296519 103.022353,51.5531989 C103.307789,51.8189493 103.750363,51.8189493 104.035798,51.5531989 C104.171783,51.4259725 104.247472,51.2471738 104.244118,51.0610912 C104.244101,50.8838295 104.168305,50.7150111 104.035798,50.597104 C103.898052,50.4702248 103.716399,50.4016755 103.529076,50.405885 Z" id="Shape" fill="#FFFFFF" fill-rule="nonzero"></path>
                        <rect id="Rectangle-path" fill="#FFFFFF" fill-rule="nonzero" x="103.005462" y="52.8973558" width="1.03315126" height="6.24554927"></rect>
                        <path d="M108.720168,52.8495511 C108.230291,52.847194 107.743045,52.9211971 107.276008,53.0688905 C106.846742,53.1989865 106.446363,53.4099337 106.096471,53.6903522 L106.034538,53.740969 L106.515924,54.5086569 L106.597563,54.4411679 C106.869124,54.2159736 107.180358,54.0433609 107.515294,53.932188 C107.87739,53.8069776 108.258173,53.7442171 108.641345,53.7465931 C109.098171,53.7134314 109.550936,53.8518198 109.910966,54.1346551 C110.210101,54.4297266 110.365357,54.8405506 110.33605,55.2594726 L110.33605,55.540677 L108.42458,55.540677 C107.560336,55.540677 106.918487,55.7065876 106.515924,56.0327847 C106.113923,56.3496169 105.885363,56.8375116 105.899412,57.3488212 C105.887231,57.8795382 106.132623,58.3834034 106.558151,58.7014142 C107.06396,59.0573899 107.674247,59.2345356 108.292269,59.2047701 C108.762694,59.2140663 109.229228,59.1179789 109.657605,58.9235657 C109.93167,58.7976848 110.175505,58.6145291 110.372647,58.3864653 L110.372647,59.1400931 L111.369202,59.1400931 L111.369202,55.2932172 C111.369202,54.4945967 111.138361,53.8871953 110.679496,53.4682007 C110.22063,53.0492062 109.561891,52.8495511 108.720168,52.8495511 Z M110.33042,57.211031 C110.186025,57.5660936 109.932749,57.8663441 109.606933,58.0687044 C109.247373,58.2794304 108.835645,58.384686 108.41895,58.3724051 C108.023323,58.3994285 107.629251,58.3010184 107.292899,58.0912007 C107.043643,57.9189223 106.899356,57.6317235 106.910042,57.3291369 C106.910042,56.6598704 107.411134,56.3364854 108.438655,56.3364854 L110.32479,56.3364854 L110.33042,57.211031 Z" id="Shape" fill="#FFFFFF" fill-rule="nonzero"></path>
                        <rect id="Rectangle-path" fill="#FFFFFF" fill-rule="nonzero" x="113.68605" y="50.405885" width="1.03315126" height="8.73702007"></rect>
                        <path d="M123.741681,55.8978066 C123.339869,55.7818672 122.932004,55.6879919 122.519916,55.6166022 C122.117353,55.5463011 121.796429,55.4816241 121.571218,55.4169471 C121.370185,55.365785 121.183431,55.2696256 121.025084,55.1357427 C120.88661,55.0130687 120.811939,54.8338477 120.822395,54.6492591 C120.821172,54.3819627 120.962832,54.1343287 121.193992,53.999677 C121.553908,53.8012619 121.963375,53.7104774 122.373529,53.7381569 C123.012863,53.7211466 123.64255,53.8965214 124.18084,54.2415128 L124.262479,54.2977536 L124.72416,53.4794489 L124.650966,53.4316442 C124.331021,53.2381029 123.982274,53.0966685 123.617815,53.0126496 C123.211505,52.9068895 122.793407,52.8530309 122.373529,52.8523631 C121.706271,52.8148077 121.044451,52.9911654 120.48458,53.355719 C120.045612,53.6506404 119.784365,54.1461488 119.789244,54.6745675 C119.76741,55.0474825 119.895035,55.4137476 120.14395,55.6925274 C120.374439,55.936279 120.666042,56.1139621 120.988487,56.2071314 C121.398132,56.3258942 121.814593,56.4198004 122.235588,56.4883358 C122.5427,56.5340113 122.847163,56.5959637 123.147689,56.6739307 C123.345458,56.7291397 123.529538,56.8249102 123.688193,56.955135 C123.820221,57.0676458 123.892928,57.2346892 123.885252,57.4078741 C123.894737,57.6787373 123.75112,57.9319664 123.513655,58.0630803 C123.133989,58.2535786 122.710174,58.3390255 122.286261,58.3105401 C121.872633,58.3111107 121.461422,58.247552 121.067311,58.1221332 C120.719156,58.0215498 120.391381,57.8606969 120.098908,57.6468978 L120.017269,57.5850328 L119.541513,58.3864653 L119.603445,58.4370821 C119.938608,58.6959196 120.321102,58.8869572 120.729496,58.9994909 C121.214,59.1468134 121.717877,59.2207482 122.224328,59.2188303 C122.914709,59.2567651 123.600752,59.0883792 124.194916,58.7351588 C124.656404,58.4478365 124.93317,57.9397432 124.924034,57.3966259 C124.942672,57.0353335 124.817141,56.6813991 124.574958,56.4124106 C124.347765,56.1701378 124.060189,55.9925401 123.741681,55.8978066 Z" id="Shape" fill="#FFFFFF" fill-rule="nonzero"></path>
                        <path d="M130.641555,53.2544854 C130.147224,52.981743 129.590349,52.8421921 129.025672,52.8495511 C128.459288,52.8428862 127.90077,52.9823629 127.40416,53.2544854 C126.9326,53.5191154 126.543029,53.9082591 126.278109,54.3793029 C125.999034,54.8781932 125.856313,55.4416631 125.864286,56.0131004 C125.853799,56.5859112 125.999786,57.1507471 126.286555,57.6468978 C126.575957,58.1262151 126.993131,58.5156705 127.491429,58.7717153 C128.035683,59.0524179 128.641281,59.193505 129.253697,59.1822737 C129.735241,59.1850333 130.212915,59.0962831 130.661261,58.9207536 C131.078103,58.7565168 131.449675,58.495255 131.745084,58.1586898 L131.798571,58.0968248 L131.196134,57.4331825 L131.128571,57.5062956 C130.900847,57.7523735 130.620963,57.944523 130.30937,58.0687044 C129.977326,58.2011248 129.622461,58.2670517 129.264958,58.2627354 C128.659536,58.2834037 128.067236,58.0835215 127.598403,57.7003266 C127.191173,57.3553742 126.935484,56.8647479 126.886176,56.3336734 L132.144832,56.3336734 L132.161723,55.987792 C132.171786,55.4144901 132.032067,54.8484697 131.756345,54.3455584 C131.489314,53.8886714 131.104296,53.5118446 130.641555,53.2544854 Z M126.897437,55.5716095 C126.952701,55.0726751 127.187852,54.610883 127.558992,54.2724453 C128.409815,53.5568367 129.652791,53.5568367 130.503613,54.2724453 C130.875591,54.6102448 131.110914,55.0723742 131.165168,55.5716095 L126.897437,55.5716095 Z" id="Shape" fill="#FFFFFF" fill-rule="nonzero"></path>
                        <path d="M135.689076,53.1729361 C135.385017,53.3297303 135.124048,53.5585526 134.928992,53.8393905 L134.928992,52.8973558 L133.932437,52.8973558 L133.932437,59.1429051 L134.965588,59.1429051 L134.965588,55.9596715 C134.929036,55.3809448 135.122215,54.8111344 135.503277,54.3736788 C135.898396,53.9853312 136.438985,53.7811736 136.992479,53.8112701 L137.290882,53.8281423 L137.290882,52.843927 L137.200798,52.843927 C136.677666,52.829825 136.158919,52.9427242 135.689076,53.1729361 Z" id="Shape" fill="#FFFFFF" fill-rule="nonzero"></path>
                        <polygon id="Shape" fill="#FFFFFF" fill-rule="nonzero" points="141.26584 57.9337263 138.960252 52.8973558 137.873613 52.8973558 140.725336 59.0894763 140.750672 59.1429051 141.741597 59.1429051 144.632731 52.8973558 143.591134 52.8973558"></polygon>
                        <path d="M146.310546,50.405885 C146.121714,50.402114 145.93923,50.474015 145.803824,50.6055401 C145.671471,50.7247455 145.595792,50.8943259 145.595504,51.0723394 C145.593575,51.2548751 145.669292,51.4296519 145.803824,51.5531989 C146.089259,51.8189493 146.531833,51.8189493 146.817269,51.5531989 C146.953254,51.4259725 147.028943,51.2471738 147.025588,51.0610912 C147.025571,50.8838295 146.949776,50.7150111 146.817269,50.597104 C146.679522,50.4702248 146.49787,50.4016755 146.310546,50.405885 Z" id="Shape" fill="#FFFFFF" fill-rule="nonzero"></path>
                        <rect id="Rectangle-path" fill="#FFFFFF" fill-rule="nonzero" x="145.786933" y="52.8973558" width="1.03315126" height="6.24554927"></rect>
                        <path d="M150.724664,54.0306095 C151.08975,53.8387818 151.497385,53.7420623 151.909832,53.7494051 C152.255842,53.7463811 152.598185,53.8203462 152.912017,53.9659325 C153.21668,54.1104204 153.477866,54.3325246 153.669286,54.6098905 L153.719958,54.6830036 L154.502563,54.1712117 L154.454706,54.0952865 C154.200956,53.6918318 153.836476,53.3697223 153.404664,53.167312 C152.936045,52.9525583 152.42536,52.8449611 151.909832,52.8523631 C151.312989,52.8429384 150.723073,52.9810787 150.192605,53.2544854 C149.699827,53.5131189 149.287841,53.9022769 149.001807,54.3793029 C148.710473,54.8750916 148.560547,55.4410767 148.568277,56.0159124 C148.560861,56.5933749 148.710712,57.1619921 149.001807,57.660958 C149.28657,58.1390018 149.69888,58.5284664 150.192605,58.7857755 C150.722862,59.060047 151.312763,59.1991498 151.909832,59.1907099 C152.423465,59.1972749 152.932136,59.0896969 153.399034,58.8757609 C153.832917,58.6742471 154.199444,58.3520572 154.454706,57.9477865 L154.502563,57.8718613 L153.719958,57.3656934 L153.669286,57.4388066 C153.479544,57.7145222 153.21892,57.9340612 152.914832,58.0743285 C152.599088,58.2165399 152.256173,58.2885019 151.909832,58.2852318 C151.497372,58.2926963 151.089707,58.1959697 150.724664,58.0040274 C150.382347,57.8216565 150.099156,57.545604 149.908277,57.208219 C149.517783,56.4621961 149.517783,55.5724407 149.908277,54.8264179 C150.098146,54.4882577 150.381596,54.2119529 150.724664,54.0306095 Z" id="Shape" fill="#FFFFFF" fill-rule="nonzero"></path>
                        <path d="M160.180672,53.2544854 C159.686342,52.981743 159.129467,52.8421921 158.56479,52.8495511 C157.998451,52.8432669 157.440028,52.9827198 156.943277,53.2544854 C156.471717,53.5191154 156.082147,53.9082591 155.817227,54.3793029 C155.538152,54.8781932 155.395431,55.4416631 155.403403,56.0131004 C155.395301,56.58887 155.545236,57.1558578 155.836933,57.6525219 C156.126335,58.1318392 156.543509,58.5212946 157.041807,58.7773394 C157.586061,59.058042 158.19166,59.1991291 158.804076,59.1878978 C159.285619,59.1906574 159.763294,59.1019072 160.211639,58.9263777 C160.628481,58.7621409 161.000054,58.5008791 161.295462,58.1643139 L161.34895,58.1024489 L160.743697,57.4528668 L160.676134,57.5259799 C160.44885,57.7712874 160.170063,57.9633437 159.859748,58.0883887 C159.527643,58.2205979 159.17282,58.286517 158.815336,58.2824197 C158.209031,58.3032601 157.615789,58.1033974 157.145966,57.7200109 C156.738736,57.3750585 156.483047,56.8844322 156.433739,56.3533577 L161.69521,56.3533577 L161.709286,56.0074763 C161.719349,55.4341744 161.57963,54.868154 161.303908,54.3652427 C161.038173,53.8993949 160.649684,53.5152225 160.180672,53.2544854 Z M156.436555,55.5716095 C156.491818,55.0726751 156.72697,54.610883 157.098109,54.2724453 C157.94984,53.5564101 159.193816,53.5564101 160.045546,54.2724453 C160.416905,54.6103695 160.651286,55.0726153 160.704286,55.5716095 L156.436555,55.5716095 Z" id="Shape" fill="#FFFFFF" fill-rule="nonzero"></path>
                        <path d="M166.776513,55.8978066 C166.374701,55.7818672 165.966836,55.6879919 165.554748,55.6166022 C165.152185,55.5463011 164.831261,55.4816241 164.603235,55.4169471 C164.402444,55.3651476 164.215827,55.2690583 164.057101,55.1357427 C163.919655,55.0123383 163.845199,54.8336337 163.854412,54.6492591 C163.854351,54.3815379 163.997007,54.1340389 164.228824,53.999677 C164.587806,53.8014914 164.996307,53.7107042 165.405546,53.7381569 C166.044879,53.7211466 166.674567,53.8965214 167.212857,54.2415128 L167.294496,54.2977536 L167.758992,53.4794489 L167.685798,53.4316442 C167.365598,53.2386124 167.016934,53.0972119 166.652647,53.0126496 C166.245385,52.906862 165.826353,52.8530049 165.405546,52.8523631 C164.739173,52.8148197 164.078251,52.991201 163.519412,53.355719 C163.079763,53.650346 162.817519,54.1457394 162.821261,54.6745675 C162.801889,55.0471362 162.929197,55.412492 163.175966,55.6925274 C163.407395,55.9351182 163.698662,56.1125967 164.020504,56.2071314 C164.430313,56.3252591 164.846735,56.4191567 165.267605,56.4883358 C165.575583,56.5343629 165.880965,56.596311 166.182521,56.6739307 C166.380049,56.7297457 166.564011,56.8254543 166.723025,56.955135 C166.854006,57.0681948 166.92564,57.2351573 166.917269,57.4078741 C166.926659,57.6779759 166.784392,57.9307398 166.548487,58.0630803 C166.167803,58.253551 165.743093,58.3389826 165.318277,58.3105401 C164.904667,58.3108843 164.493491,58.2473309 164.099328,58.1221332 C163.752159,58.0212453 163.42536,57.8604039 163.133739,57.6468978 L163.052101,57.5850328 L162.576345,58.3864653 L162.635462,58.4370821 C162.971157,58.6950717 163.353478,58.886023 163.761513,58.9994909 C164.246017,59.1468134 164.749894,59.2207482 165.256345,59.2188303 C165.94679,59.2574534 166.633031,59.0890188 167.226933,58.7351588 C167.688421,58.4478365 167.965187,57.9397432 167.95605,57.3966259 C167.976261,57.0351067 167.850522,56.6805863 167.606975,56.4124106 C167.380307,56.1708704 167.093841,55.9933592 166.776513,55.8978066 Z" id="Shape" fill="#FFFFFF" fill-rule="nonzero"></path>
                        <path d="M170.216597,57.9646588 C170.076842,57.8324854 169.891056,57.7598661 169.698613,57.7621916 C169.50761,57.7586034 169.323112,57.831512 169.186261,57.9646588 C169.045427,58.0971699 168.96764,58.2832461 168.972311,58.4764507 C168.969219,58.6696202 169.045529,58.8556126 169.183445,58.9910547 C169.319772,59.1277212 169.50548,59.2037475 169.698613,59.201958 C169.892478,59.2032418 170.078872,59.1273492 170.216597,58.9910547 C170.359055,58.8580501 170.438776,58.6712156 170.436176,58.4764507 C170.439763,58.2823087 170.35981,58.0959558 170.216597,57.9646588 Z" id="Shape" fill="#FFFFFF" fill-rule="nonzero"></path>
                    </g>
                </g>
            </g>
        </g>
    </g>
</svg>