<?xml version="1.0" encoding="UTF-8"?> <svg xmlns="http://www.w3.org/2000/svg" viewBox="0 0 175.43 169.34"><title>Ресурс 1</title><g id="Слой_2" data-name="Слой 2"><g id="Layer_1" data-name="Layer 1"><polygon points="124.05 0 51.38 0 0 49.6 0 119.74 51.38 169.34 124.05 169.34 175.44 119.74 175.44 49.6 124.05 0" style="fill:#fff"></polygon><path d="M63.82,142.17,28.93,108.8V87.7a19.13,19.13,0,0,1-4.89.64h-.29v22.52l37.92,36.27h53.62L142,121.53v-7l-28.89,27.63Z" style="fill:#5e666e"></path><path d="M115.29,23.29H61.67L28.56,55a18.71,18.71,0,0,1,5.37,1.86L63.82,28.24h49.33L148,61.61V90.44h5.17V59.56Z" style="fill:#5e666e"></path><path d="M98.32,92.43c-1.74,0-3.29.83-3.29,2.42,0,1.87,2.39,2.39,4.34,3,3.58,1.18,7.89,2.77,7.89,7.86,0,5.26-5.18,7.51-9.59,7.51a13.36,13.36,0,0,1-9.7-4.05L91.4,106c2.06,1.9,3.66,3,6.3,3,2,0,4-.93,4-3.08s-2.32-2.87-4.89-3.77c-3.29-1.18-7-2.56-7-7.2s4.09-6.79,8.29-6.79a13.56,13.56,0,0,1,8.4,2.87l-3,3.53a8.76,8.76,0,0,0-5.25-2.18" style="fill:#79a54c"></path><path d="M116.52,98.73v7.06a11,11,0,0,0,.07,1.56c.15,1.07.58,1.73,1.67,1.73a4.51,4.51,0,0,0,2.06-.52l1.59,3.64a10,10,0,0,1-4.53,1.07,5.46,5.46,0,0,1-5.65-3.91,10.23,10.23,0,0,1-.36-3V98.73H109.1V94.65h2.28l.8-4h4.34v4h4.85v4.09Z" style="fill:#79a54c"></path><path d="M143.48,103.75c0,5.37-4.16,9.52-10,9.52s-10-4.16-10-9.52,4.16-9.52,10-9.52,10,4.16,10,9.52m-10-5.3c-2.82,0-4.74,2.32-4.74,5.3s1.92,5.3,4.74,5.3,4.71-2.32,4.71-5.3-1.88-5.3-4.71-5.3" style="fill:#79a54c"></path><path d="M150.9,94.65l.4,2.25a7.24,7.24,0,0,1,5.9-2.67c5.07,0,8.87,4.29,8.87,9.59,0,5.12-3.76,9.45-8.91,9.45a7.64,7.64,0,0,1-5.57-2.18v10.42h-5.14V94.65Zm.69,12.43a5.56,5.56,0,0,0,4.42,2c3.29,0,4.81-2.81,4.81-5.37s-1.77-5.23-4.74-5.23a5.08,5.08,0,0,0-4.49,2.42Z" style="fill:#79a54c"></path><path d="M24.61,62.81c-1.74,0-3.29.83-3.29,2.42,0,1.87,2.39,2.39,4.34,3,3.58,1.18,7.89,2.77,7.89,7.86,0,5.26-5.17,7.51-9.59,7.51a13.35,13.35,0,0,1-9.7-4.05l3.44-3.22c2.06,1.9,3.66,3,6.3,3,2,0,4-.93,4-3.08s-2.32-2.87-4.89-3.77c-3.29-1.18-7-2.56-7-7.2s4.09-6.79,8.29-6.79a13.57,13.57,0,0,1,8.4,2.87l-3,3.53a8.76,8.76,0,0,0-5.25-2.18" style="fill:#79a54c"></path><rect x="37.46" y="65.03" width="5.14" height="18.21" style="fill:#79a54c"></rect><path d="M52,65l.4,2.49a7.29,7.29,0,0,1,5.9-2.91A6.52,6.52,0,0,1,63.41,67c1.48,1.83,1.7,4.19,1.7,6.79v9.45H60V74a9,9,0,0,0-.58-3.91,2.65,2.65,0,0,0-2.53-1.28,5,5,0,0,0-4.13,2.32V83.24H47.59V65Z" style="fill:#79a54c"></path><path d="M88.28,82.27a9,9,0,0,1-1.2,4.85c-1.66,2.77-4.92,4-8.4,4a16.69,16.69,0,0,1-8.8-2.49l1.88-4.05a12.43,12.43,0,0,0,6.73,2.32c2.68,0,4.63-1.39,4.63-4.29V80.92a7.28,7.28,0,0,1-5.61,2.32c-5,0-8.87-4.12-8.87-9.38a9,9,0,0,1,8.94-9.25,7.18,7.18,0,0,1,5.79,2.56L83.82,65h4.45ZM83.13,70.81a5.65,5.65,0,0,0-4.42-2c-3.29,0-4.81,2.63-4.81,5.16a4.75,4.75,0,0,0,4.74,5,5.08,5.08,0,0,0,4.49-2.39Z" style="fill:#79a54c"></path><rect x="93.12" y="57.27" width="5.14" height="25.97" style="fill:#79a54c"></rect><path d="M107.17,75.35a4.71,4.71,0,0,0,4.78,4.36,5.43,5.43,0,0,0,5-2.7l3.37,2.18a9.61,9.61,0,0,1-8.69,4.47c-5.76,0-9.63-3.84-9.63-9.31a9.54,9.54,0,0,1,9.67-9.73c5.28,0,9.19,3.57,9.19,8.41a12.61,12.61,0,0,1-.25,2.32Zm8.4-3.36a3.59,3.59,0,0,0-3.8-3.53A4.26,4.26,0,0,0,107.42,72Z" style="fill:#79a54c"></path><path d="M37.46,59.8A2.57,2.57,0,1,1,40,62.25a2.51,2.51,0,0,1-2.57-2.46" style="fill:#79a54c"></path><path d="M132.91,142.36h1.2l1.31,2,1.31-2h1.16v4.75h-1.07V143.9L135.44,146h-.1L134,143.9v3.21h-1.07Zm-3.66,1h-1.49v-1h4.1v1h-1.49v3.8h-1.13Z" style="fill:#5e666e"></path></g></g></svg> 