<svg xmlns="http://www.w3.org/2000/svg" xmlns:xlink="http://www.w3.org/1999/xlink" version="1.1" baseProfile="basic" x="0px" y="0px" viewBox="0 0 100.0999985 125.12499812499999" xml:space="preserve"><path d="M50,30.2000008c-0.2000008,0-0.4000015-0.2000008-0.4000015-0.3999996v-7.3999996  c0-0.2000008,0.2000008-0.3999996,0.4000015-0.3999996s0.4000015,0.2000008,0.4000015,0.3999996v7.3999996  C50.4000015,30,50.2000008,30.2000008,50,30.2000008z"/><path d="M50,20.5c-0.2000008,0-0.4000015-0.2000008-0.4000015-0.3999996v-6c0-0.1999998,0.2000008-0.3999996,0.4000015-0.3999996  s0.4000015,0.1999998,0.4000015,0.3999996v6C50.4000015,20.2999992,50.2000008,20.5,50,20.5z"/><path d="M50,37.5999985c-0.2000008,0-0.4000015-0.2000008-0.4000015-0.4000015v-4.9000015  c0-0.2000008,0.2000008-0.3999996,0.4000015-0.3999996s0.4000015,0.1999989,0.4000015,0.3999996v4.9000015  C50.4000015,37.4000015,50.2000008,37.5999985,50,37.5999985z"/><path d="M40.0999985,12.8000002c-0.2000008,0-0.2999992-0.1000004-0.4000015-0.3000002L38,6  c-0.0999985-0.1999998,0.0999985-0.4000001,0.2999992-0.5s0.4000015,0.0999999,0.5,0.3000002l1.7000008,6.5  c0.0999985,0.1999998-0.0999985,0.3999996-0.2999992,0.5H40.0999985z"/><path d="M46.0999985,35.5c-0.2000008,0-0.2999992-0.0999985-0.4000015-0.2999992l-2.4000015-8.7999992  c-0.0999985-0.2000008,0.0999985-0.3999996,0.2999992-0.5s0.4000015,0.1000004,0.5,0.2999992L46.4999962,35  c0.0999985,0.2000008-0.0999985,0.4000015-0.2999992,0.5C46.2000008,35.5,46.0999985,35.5,46.0999985,35.5z"/><path d="M43.0999985,24.3999996c-0.2000008,0-0.2999992-0.1000004-0.4000015-0.2999992l-2.5-9.3000002  c-0.0999985-0.1999998,0.0999985-0.3999996,0.2999992-0.5s0.4000015,0.1000004,0.5,0.3000002l2.5,9.3000011  c0.0999985,0.2000008-0.0999985,0.3999996-0.2999992,0.5C43.2000008,24.3999996,43.0999985,24.3999996,43.0999985,24.3999996z"/><path d="M42.7999992,31.8999996c-0.2000008,0-0.2999992-0.1000004-0.4000015-0.2000008  c-0.7000008-1.6000004-1.4000015-3.2000008-2.0999985-4.8000011c-0.7000008-1.6000004-1.2999992-3.2000008-2-4.7999992  c-0.0999985-0.2000008,0-0.3999996,0.2000008-0.5s0.4000015,0,0.5,0.2000008  C39.7000008,23.3999996,40.4000015,25,41.0999985,26.5999985c0.7000008,1.6000004,1.2999992,3.2000008,2,4.7999992  c0.0999985,0.2000008,0,0.3999996-0.2000008,0.5C42.9000015,31.8999996,42.9000015,31.8999996,42.7999992,31.8999996z"/><path d="M37.5999985,19.7999992c-0.2000008,0-0.2999992-0.1000004-0.4000015-0.2000008l-0.5-1.2000008  c-0.7000008-1.6000004-1.4000015-3.1999998-2-4.8000002c-0.0999985-0.1999998,0-0.3999996,0.2000008-0.5s0.4000015,0,0.5,0.1999998  c0.5999985,1.6000004,1.2999992,3.2000008,2,4.8000011l0.5,1.2000008c0.0999985,0.2000008,0,0.3999996-0.2000008,0.5  C37.7000008,19.7999992,37.7000008,19.7999992,37.5999985,19.7999992z"/><path d="M47.9000015,30.7000008c-0.2000008,0-0.4000015-0.1000004-0.4000015-0.2999992  c-0.4000015-2.3999996-0.7000008-4.7999992-1-7.1000004c-0.0999985-1.1000004-0.2999992-2.2000008-0.5-3.2999992  c0-0.2000008,0.0999985-0.3999996,0.2999992-0.5c0.2000008,0,0.4000015,0.1000004,0.5,0.2999992  c0.2000008,1.1000004,0.2999992,2.2000008,0.5,3.2999992c0.2999992,2.2999992,0.5999985,4.6999989,1,7.1000004  C48.2999992,30.5,48.2000008,30.7000008,47.9000015,30.7000008L47.9000015,30.7000008z"/><path d="M46.0999985,17.6000004c-0.2000008,0-0.4000015-0.1000004-0.4000015-0.2999992  c-0.2000008-1.1000004-0.2999992-2.1999998-0.5-3.3000002c-0.0999985-1.1000004-0.2999992-2.0999994-0.4000015-3.0999994  c0-0.1999998,0.0999985-0.3999996,0.2999992-0.5c0.2000008,0,0.4000015,0.1000004,0.5,0.3000002  c0.0999985,1,0.2999992,2.0999994,0.4000015,3.0999994c0.2000008,1.1000004,0.2999992,2.2000008,0.5,3.2999992  C46.5,17.3999996,46.4000015,17.6000004,46.0999985,17.6000004L46.0999985,17.6000004z"/><path d="M40.0816994,32.8843956c-0.1732063,0.1000023-0.4464111,0.0267944-0.5464096-0.1464081l-3.7000008-6.4085884  c-0.1000023-0.1732063-0.0267944-0.4464092,0.1464119-0.5464096s0.4464111-0.0267963,0.5464096,0.1464081l3.7000008,6.4085884  C40.3281097,32.5111885,40.2549057,32.7843971,40.0816994,32.8843956z"/><path d="M35.2317009,24.4839497c-0.1732063,0.1000004-0.4464149,0.0267944-0.5464134-0.14641l-3-5.1961517  c-0.1000004-0.1732063-0.0267944-0.4464111,0.1464119-0.5464115s0.4464111-0.0267963,0.5464096,0.14641l3,5.1961517  C35.4781113,24.1107426,35.4049034,24.3839493,35.2317009,24.4839497z"/><path d="M43.7817001,39.2929802c-0.1732063,0.1000023-0.4464149,0.0267982-0.5464134-0.1464081l-2.4500008-4.2435265  c-0.1000023-0.1732063-0.0267944-0.4464111,0.1464119-0.5464096c0.1732063-0.1000023,0.4464111-0.0267982,0.5464096,0.1464081  l2.4500008,4.2435265C44.0281105,38.9197769,43.9549026,39.1929817,43.7817001,39.2929802z"/><path d="M22.8080463,22.7655544c-0.1732063,0.1000004-0.3098068,0.0633965-0.4964123-0.0598068l-4.7222404-4.7791672  c-0.1865997-0.1232052-0.1133976-0.39641,0.0098076-0.5830116c0.1232052-0.1866035,0.3964119-0.1133995,0.5830135,0.0098076  l4.7222424,4.7791634c0.1866016,0.1232071,0.1133995,0.39641-0.0098057,0.5830135L22.8080463,22.7655544z"/><path d="M39.3541985,39.4243317c-0.1732063,0.0999985-0.3098068,0.0633965-0.4964104-0.0598068l-6.4784622-6.4210243  c-0.1866035-0.1232033-0.1133995-0.3964081,0.0098076-0.5830116c0.1232033-0.1866035,0.3964119-0.1133957,0.5830116,0.0098076  l6.4784622,6.4210243c0.1865997,0.1232033,0.1133995,0.3964081-0.0098076,0.5830116  C39.4408035,39.3743286,39.3541985,39.4243317,39.3541985,39.4243317z"/><path d="M31.2061214,31.3114491c-0.1732044,0.1000004-0.3098068,0.0633965-0.4964104-0.0598068l-6.8150635-6.8040371  c-0.1866016-0.1232052-0.1133995-0.3964081,0.0098076-0.5830116c0.1232052-0.1866035,0.3964119-0.1133976,0.5830116,0.0098076  l6.8150654,6.8040371c0.1866016,0.1232071,0.1133976,0.39641-0.0098076,0.5830116  C31.2927265,31.2614479,31.2061214,31.3114491,31.2061214,31.3114491z"/><path d="M34.6963158,37.9566383c-0.1732063,0.1000023-0.3098068,0.0633965-0.4464111,0.0267944  c-1.4062195-1.0356407-2.812439-2.0712814-4.2186546-3.1069221c-1.4062176-1.0356407-2.725832-2.1212845-4.1320496-3.1569214  c-0.1866016-0.1232071-0.2000008-0.3464108-0.0767937-0.5330143c0.1232052-0.1866035,0.3464108-0.2000008,0.5330124-0.0767937  c1.4062195,1.0356388,2.8124371,2.0712795,4.2186508,3.1069202c1.4062195,1.0356407,2.7258339,2.1212845,4.1320496,3.1569214  c0.1866035,0.1232071,0.2000008,0.3464127,0.0767975,0.5330162C34.7829208,37.9066391,34.7829208,37.9066391,34.6963158,37.9566383z  "/><path d="M24.1429825,30.0777321c-0.1732063,0.1000004-0.3098068,0.0633965-0.4464111,0.0267944l-1.0330143-0.7892323  c-1.4062176-1.0356407-2.8124371-2.0712795-4.1320515-3.1569214c-0.1865997-0.1232052-0.1999989-0.3464088-0.0767937-0.5330124  s0.3464127-0.2000008,0.5330124-0.0767956c1.3196144,1.0856419,2.7258339,2.1212826,4.1320515,3.1569233l1.0330143,0.7892303  c0.1866016,0.1232071,0.1999989,0.3464108,0.0767937,0.5330143C24.2295876,30.0277309,24.2295876,30.0277309,24.1429825,30.0777321z  "/><path d="M38.5130463,34.3674088c-0.1732063,0.0999985-0.3964119,0.1133957-0.4964104-0.0598068  c-1.5464096-1.8784599-3.006218-3.806921-4.4160271-5.6487808c-0.6366005-0.9026299-1.3598061-1.7552567-2.0830097-2.6078835  c-0.1000004-0.1732063-0.1133995-0.3964081,0.0098057-0.5830116c0.1732063-0.1000004,0.3964119-0.1133976,0.5830116,0.0098057  c0.7232056,0.8526287,1.3598099,1.7552586,2.0830154,2.6078835c1.4098053,1.8418579,2.8696098,3.770319,4.4160233,5.6487827  C38.7594566,33.9942017,38.7728539,34.2174072,38.5130463,34.3674088L38.5130463,34.3674088z"/><path d="M30.4041996,23.9224758c-0.1732063,0.1000004-0.3964119,0.1133976-0.4964123-0.0598049  c-0.7232056-0.8526287-1.3598061-1.7552567-2.0830116-2.6078854c-0.6366024-0.9026279-1.3098068-1.6686535-1.8964119-2.4846764  c-0.1000004-0.1732063-0.1133995-0.39641,0.0098076-0.5830135c0.1732044-0.1000004,0.3964119-0.1133976,0.5830116,0.0098076  c0.5866013,0.8160267,1.3098068,1.6686535,1.8964119,2.4846783c0.7232056,0.8526287,1.359808,1.7552567,2.0830116,2.6078835  C30.65061,23.5492706,30.6640091,23.7724743,30.4041996,23.9224758L30.4041996,23.9224758z"/><path d="M32.8343964,40.1683006c-0.0999985,0.1732063-0.3732071,0.2464104-0.5464096,0.1464119l-6.4085884-3.7000008  c-0.1732063-0.0999985-0.2464085-0.3732033-0.1464081-0.5464096s0.3732052-0.2464104,0.5464096-0.1464119l6.4085884,3.7000008  C32.8611908,39.7218895,32.9343987,39.9950943,32.8343964,40.1683006z"/><path d="M24.4339504,35.3182983c-0.1000004,0.1732063-0.3732071,0.2464142-0.5464115,0.1464119l-5.1961517-3  c-0.1732063-0.0999985-0.2464104-0.3732033-0.14641-0.5464096s0.3732052-0.2464123,0.5464115-0.1464119l5.1961517,3  C24.4607449,34.8718872,24.5339508,35.1450958,24.4339504,35.3182983z"/><path d="M39.242981,43.8682976c-0.0999985,0.1732063-0.3732033,0.2464142-0.5464096,0.1464119l-4.2435265-2.4500008  c-0.1732063-0.0999985-0.2464104-0.3732033-0.1464081-0.5464096c0.0999985-0.1732063,0.3732033-0.2464142,0.5464096-0.1464119  l4.2435265,2.4500008C39.2697792,43.4218903,39.3429832,43.6950951,39.242981,43.8682976z"/><path d="M12.8155537,40.041954c-0.1000004,0.1732063-0.2366028,0.2098045-0.4598083,0.1964111l-6.4791641-1.7777596  c-0.2232041-0.013401-0.296411-0.286602-0.2830129-0.5098076c0.0133977-0.2232056,0.286603-0.2964096,0.5098076-0.2830124  l6.4791656,1.7777557c0.2232046,0.0133972,0.2964106,0.286602,0.2830133,0.5098076L12.8155537,40.041954z"/><path d="M35.4743309,46.1958008c-0.1000023,0.1732063-0.2366028,0.2098083-0.4598083,0.1964111l-8.8210239-2.321537  c-0.2232056-0.0133972-0.2964115-0.286602-0.2830124-0.5098076c0.0133972-0.2232056,0.286602-0.2964096,0.5098057-0.2830124  l8.8210258,2.321537c0.2232018,0.013401,0.2964096,0.286602,0.2830124,0.5098076  C35.5243301,46.1091957,35.4743309,46.1958008,35.4743309,46.1958008z"/><path d="M24.3614483,43.2438774c-0.1000004,0.1732063-0.2366028,0.2098045-0.4598083,0.1964111l-9.3040361-2.4849358  c-0.2232046-0.013401-0.2964106-0.286602-0.2830133-0.5098076s0.2866039-0.2964134,0.5098076-0.2830124l9.3040371,2.4849358  c0.2232056,0.013401,0.2964115,0.286602,0.2830124,0.5098076C24.4114494,43.1572723,24.3614483,43.2438774,24.3614483,43.2438774z"/><path d="M30.7066383,47.253685c-0.1000004,0.1732025-0.2366028,0.2098045-0.3732071,0.2464104  c-1.7356415-0.1937828-3.4712811-0.3875656-5.2069206-0.5813484c-1.7356415-0.1937828-3.4212818-0.4741707-5.1569214-0.6679497  c-0.2232056-0.0133972-0.3464108-0.2000008-0.3330135-0.4232063s0.2000008-0.3464127,0.4232063-0.3330116  c1.7356415,0.1937828,3.471283,0.3875618,5.2069206,0.5813484c1.7356415,0.193779,3.4212818,0.4741669,5.1569214,0.6679497  c0.2232056,0.0133972,0.3464088,0.1999969,0.3330116,0.4232025C30.7566395,47.1670799,30.7566395,47.1670799,30.7066383,47.253685z"/><path d="M17.6277313,45.707016c-0.1000004,0.1732063-0.2366028,0.2098083-0.3732071,0.2464104l-1.2892313-0.1669884  c-1.7356415-0.193779-3.471282-0.3875618-5.1569223-0.6679459c-0.2232037-0.013401-0.3464098-0.2000008-0.3330126-0.4232063  c0.0133982-0.2232056,0.2000008-0.3464127,0.4232054-0.3330154c1.6856403,0.2803879,3.4212818,0.4741707,5.1569233,0.6679497  l1.2892303,0.1669884c0.2232056,0.013401,0.3464108,0.2000008,0.3330135,0.4232063  C17.6777325,45.6204109,17.6777325,45.6204109,17.6277313,45.707016z"/><path d="M32.217411,42.2369537c-0.1000023,0.1732063-0.2866039,0.2964096-0.4598083,0.1964111  c-2.2784615-0.8535881-4.5069218-1.7937813-6.6487808-2.6839752c-1.0026283-0.463398-2.0552559-0.8401947-3.1078835-1.2169876  c-0.1732063-0.0999985-0.2964096-0.286602-0.2830124-0.5098076c0.1000004-0.1732025,0.2866039-0.2964096,0.5098057-0.2830124  c1.0526295,0.3767967,2.0552578,0.8401947,3.1078835,1.2169876c2.1418571,0.8901939,4.3703175,1.8303871,6.6487808,2.6839752  C32.2442017,41.7905426,32.3674088,41.9771461,32.217411,42.2369537L32.217411,42.2369537z"/><path d="M19.9724751,37.2458c-0.1000004,0.1732063-0.2866039,0.2964134-0.4598064,0.1964111  c-1.0526295-0.3767929-2.0552559-0.8401909-3.1078854-1.2169876c-1.0026274-0.463398-1.9686518-0.7901917-2.8846788-1.2035866  c-0.1732044-0.0999985-0.2964106-0.286602-0.2830124-0.5098076c0.1000004-0.1732063,0.286603-0.2964096,0.5098076-0.2830124  c0.9160242,0.4133987,1.9686527,0.7901917,2.8846788,1.2035904c1.0526295,0.3767929,2.0552559,0.8401909,3.1078835,1.2169838  C19.9992714,36.7993889,20.1224766,36.9859924,19.9724751,37.2458L19.9724751,37.2458z"/><path d="M30.2000008,50.0999985C30.2000008,50.2999992,30,50.5,29.8000011,50.5h-7.3999996  c-0.2000008,0-0.3999996-0.2000008-0.3999996-0.4000015s0.2000008-0.4000015,0.3999996-0.4000015h7.3999996  C30,49.6999969,30.2000008,49.8999977,30.2000008,50.0999985z"/><path d="M20.5,50.0999985C20.5,50.2999992,20.2999992,50.5,20.1000004,50.5h-6  c-0.1999998,0-0.3999996-0.2000008-0.3999996-0.4000015s0.1999998-0.4000015,0.3999996-0.4000015h6  C20.2999992,49.6999969,20.5,49.8999977,20.5,50.0999985z"/><path d="M37.5999985,50.0999985c0,0.2000008-0.2000008,0.4000015-0.4000015,0.4000015h-4.9000015  c-0.2000008,0-0.3999996-0.2000008-0.3999996-0.4000015s0.1999989-0.4000015,0.3999996-0.4000015h4.9000015  C37.4000015,49.6999969,37.5999985,49.8999977,37.5999985,50.0999985z"/><path d="M12.8000002,60c0,0.2000008-0.1000004,0.2999992-0.3000002,0.4000015L6,62.0999985  C5.8000002,62.1999969,5.5999999,62,5.5,61.7999992s0.0999999-0.4000015,0.3000002-0.5l6.5-1.7000008  c0.1999998-0.0999985,0.3999996,0.0999985,0.5,0.2999992V60z"/><path d="M35.5,54c0,0.2000008-0.0999985,0.2999992-0.2999992,0.4000015l-8.7999992,2.4000015  c-0.2000008,0.0999985-0.3999996-0.0999985-0.5-0.2999992s0.1000004-0.4000015,0.2999992-0.5L35,53.6000023  c0.2000008-0.0999985,0.4000015,0.0999985,0.5,0.2999992C35.5,53.8999977,35.5,54,35.5,54z"/><path d="M24.3999996,57c0,0.2000008-0.1000004,0.2999992-0.2999992,0.4000015l-9.3000002,2.5  c-0.1999998,0.0999985-0.3999996-0.0999985-0.5-0.2999992s0.1000004-0.4000015,0.3000002-0.5l9.3000011-2.5  c0.2000008-0.0999985,0.3999996,0.0999985,0.5,0.2999992C24.3999996,56.8999977,24.3999996,57,24.3999996,57z"/><path d="M31.8999996,57.2999992c0,0.2000008-0.1000004,0.2999992-0.2000008,0.4000015  c-1.6000004,0.7000008-3.2000008,1.4000015-4.8000011,2.0999985c-1.6000004,0.7000008-3.2000008,1.2999992-4.7999992,2  c-0.2000008,0.0999985-0.3999996,0-0.5-0.2000008s0-0.4000015,0.2000008-0.5C23.3999996,60.3999977,25,59.6999969,26.5999985,59  c1.6000004-0.7000008,3.2000008-1.2999992,4.7999992-2c0.2000008-0.0999985,0.3999996,0,0.5,0.2000008  C31.8999996,57.1999969,31.8999996,57.1999969,31.8999996,57.2999992z"/><path d="M19.7999992,62.5c0,0.2000008-0.1000004,0.2999992-0.2000008,0.4000015l-1.2000008,0.5  c-1.6000004,0.6999969-3.1999998,1.4000015-4.8000002,2c-0.1999998,0.0999985-0.3999996,0-0.5-0.2000046  c-0.1000004-0.1999969,0-0.4000015,0.1999998-0.5c1.6000004-0.5999985,3.2000008-1.2999954,4.8000011-1.9999962l1.2000008-0.5  c0.2000008-0.0999985,0.3999996,0,0.5,0.2000008C19.7999992,62.3999977,19.7999992,62.3999977,19.7999992,62.5z"/><path d="M30.7000008,52.1999969c0,0.2000008-0.1000004,0.4000015-0.2999992,0.4000015  c-2.3999996,0.4000015-4.7999992,0.7000008-7.1000004,1c-1.1000004,0.0999985-2.2000008,0.2999992-3.2999992,0.5  c-0.2000008,0-0.3999996-0.0999985-0.5-0.2999992c0-0.2000008,0.1000004-0.4000015,0.2999992-0.5  c1.1000004-0.2000008,2.2000008-0.2999992,3.2999992-0.5c2.2999992-0.2999992,4.6999989-0.5999985,7.1000004-1  C30.5,51.7999992,30.7000008,51.8999977,30.7000008,52.1999969L30.7000008,52.1999969z"/><path d="M17.6000004,54c0,0.2000008-0.1000004,0.4000015-0.2999992,0.4000015  c-1.1000004,0.2000008-2.1999998,0.2999992-3.3000002,0.5C12.9000006,55,11.9000015,55.2000008,10.9000015,55.3000031  c-0.1999998,0-0.3999996-0.0999985-0.5-0.2999992c0-0.2000008,0.1000004-0.4000015,0.3000002-0.5  c1-0.0999985,2.0999994-0.2999992,3.0999994-0.4000015c1.1000004-0.2000008,2.2000008-0.2999992,3.2999992-0.5  C17.3999996,53.5999985,17.6000004,53.6999969,17.6000004,54L17.6000004,54z"/><path d="M32.8843956,60.0182991c0.1000023,0.1732063,0.0267944,0.4464111-0.1464081,0.5464096l-6.4085884,3.7000008  c-0.1732063,0.0999985-0.4464092,0.0267944-0.5464096-0.1464081c-0.1000004-0.1732101-0.0267963-0.4464149,0.1464081-0.5464134  l6.4085884-3.7000008C32.5111885,59.7718887,32.7843971,59.8450928,32.8843956,60.0182991z"/><path d="M24.4839497,64.8683014c0.1000004,0.1732025,0.0267944,0.4464111-0.14641,0.5464096l-5.1961517,3  c-0.1732063,0.0999985-0.4464111,0.0267944-0.5464115-0.1464157c-0.1000004-0.1732025-0.0267963-0.4464111,0.14641-0.5464096  l5.1961517-3C24.1107426,64.6218872,24.3839493,64.6950912,24.4839497,64.8683014z"/><path d="M39.2929802,56.3182983c0.1000023,0.1732063,0.0267982,0.4464149-0.1464081,0.5464134l-4.2435265,2.4500008  c-0.1732063,0.1000023-0.4464111,0.0267944-0.5464096-0.1464119c-0.1000023-0.1732063-0.0267982-0.4464111,0.1464081-0.5464096  l4.2435265-2.4500008C38.9197769,56.071888,39.1929817,56.1450958,39.2929802,56.3182983z"/><path d="M22.7655544,77.291954c0.1000004,0.1732025,0.0633965,0.3098068-0.0598068,0.4964066l-4.7791672,4.7222443  c-0.1232052,0.1865997-0.39641,0.1133957-0.5830116-0.0098038c-0.1866035-0.1232071-0.1133995-0.3964157,0.0098076-0.5830154  l4.7791634-4.7222443c0.1232071-0.1865997,0.39641-0.1133957,0.5830135,0.0098038L22.7655544,77.291954z"/><path d="M39.4243317,60.7458c0.0999985,0.1732063,0.0633965,0.3098068-0.0598068,0.4964104l-6.4210243,6.4784622  c-0.1232033,0.1865997-0.3964081,0.1133957-0.5830116-0.0098038c-0.1866035-0.1232071-0.1133957-0.3964157,0.0098076-0.5830154  l6.4210243-6.4784622c0.1232033-0.1865997,0.3964081-0.1133995,0.5830116,0.0098076  C39.3743286,60.6591949,39.4243317,60.7458,39.4243317,60.7458z"/><path d="M31.3114491,68.8938751c0.1000004,0.1732101,0.0633965,0.3098068-0.0598068,0.4964142l-6.8040371,6.8150635  c-0.1232052,0.1865997-0.3964081,0.1133957-0.5830116-0.0098114c-0.1866035-0.1231995-0.1133976-0.3964081,0.0098076-0.5830078  l6.8040371-6.8150635c0.1232071-0.1866074,0.39641-0.1134033,0.5830116,0.0098038  C31.2614479,68.8072739,31.3114491,68.8938751,31.3114491,68.8938751z"/><path d="M37.9566383,65.4036865c0.1000023,0.1732025,0.0633965,0.3098068,0.0267944,0.4464111  c-1.0356407,1.4062195-2.0712814,2.8124313-3.1069221,4.2186508s-2.1212845,2.7258301-3.1569214,4.1320496  c-0.1232071,0.1865997-0.3464108,0.1999969-0.5330143,0.0767975c-0.1866035-0.1232071-0.2000008-0.3464127-0.0767937-0.53302  c1.0356388-1.4062119,2.0712795-2.8124313,3.1069202-4.2186508s2.1212845-2.7258301,3.1569214-4.1320496  c0.1232071-0.1865997,0.3464127-0.1999969,0.5330162-0.0767899C37.9066391,65.3170776,37.9066391,65.3170776,37.9566383,65.4036865z  "/><path d="M30.0777321,75.957016c0.1000004,0.1732025,0.0633965,0.3098068,0.0267944,0.4464111l-0.7892323,1.0330124  c-1.0356407,1.4062195-2.0712795,2.812439-3.1569214,4.1320496c-0.1232052,0.1866074-0.3464088,0.2000046-0.5330124,0.0767975  s-0.2000008-0.3464127-0.0767956-0.5330124c1.0856419-1.3196182,2.1212826-2.7258301,3.1569233-4.1320496l0.7892303-1.0330124  c0.1232071-0.1866074,0.3464108-0.2000046,0.5330143-0.0767975C30.0277309,75.8704147,30.0277309,75.8704147,30.0777321,75.957016z"/><path d="M34.3674088,61.5869522c0.0999985,0.1732063,0.1133957,0.3964119-0.0598068,0.4964104  c-1.8784599,1.5464096-3.806921,3.0062141-5.6487808,4.4160271c-0.9026299,0.6365967-1.7552567,1.3598022-2.6078835,2.0830078  c-0.1732063,0.1000061-0.3964081,0.1134033-0.5830116-0.0098038c-0.1000004-0.1732025-0.1133976-0.3964157,0.0098057-0.5830154  c0.8526287-0.7232056,1.7552586-1.3598022,2.6078835-2.0830078c1.8418579-1.4098053,3.770319-2.8696136,5.6487827-4.4160271  C33.9942017,61.3405418,34.2174072,61.3271446,34.3674088,61.5869522L34.3674088,61.5869522z"/><path d="M23.9224758,69.6958008c0.1000004,0.1732025,0.1133976,0.3964081-0.0598049,0.4964066  c-0.8526287,0.7232056-1.7552567,1.3598099-2.6078854,2.0830154c-0.9026279,0.6366043-1.6686535,1.3098068-2.4846764,1.8964157  c-0.1732063,0.0999985-0.39641,0.1133957-0.5830135-0.0098114c-0.1000004-0.1732025-0.1133976-0.3964081,0.0098076-0.5830154  c0.8160267-0.5866013,1.6686535-1.3098068,2.4846783-1.8964081c0.8526287-0.7232056,1.7552567-1.3598099,2.6078835-2.0830154  C23.5492706,69.4493866,23.7724743,69.4359894,23.9224758,69.6958008L23.9224758,69.6958008z"/><path d="M40.1683006,67.2656021c0.1732063,0.0999985,0.2464104,0.3732071,0.1464119,0.5464096l-3.7000008,6.4085846  c-0.0999985,0.1732101-0.3732033,0.2464142-0.5464096,0.1464157c-0.1732063-0.1000061-0.2464104-0.3732071-0.1464119-0.5464172  l3.7000008-6.4085846C39.7218895,67.2388077,39.9950943,67.1656036,40.1683006,67.2656021z"/><path d="M35.3182983,75.6660461c0.1732063,0.1000061,0.2464142,0.3732071,0.1464119,0.5464096l-3,5.1961594  c-0.0999985,0.1732025-0.3732033,0.2464066-0.5464096,0.1464081c-0.1732063-0.1000061-0.2464123-0.3732071-0.1464119-0.5464096  l3-5.1961594C34.8718872,75.6392517,35.1450958,75.5660477,35.3182983,75.6660461z"/><path d="M43.8682976,60.8570175c0.1732063,0.0999985,0.2464142,0.3732033,0.1464119,0.5464096l-2.4500008,4.2435303  c-0.0999985,0.1732025-0.3732033,0.2464066-0.5464096,0.1464081c-0.1732063-0.1000061-0.2464142-0.3732071-0.1464119-0.5464096  l2.4500008-4.2435303C43.4218903,60.8302193,43.6950951,60.7570152,43.8682976,60.8570175z"/><path d="M40.041954,87.2844467c0.1732063,0.0999985,0.2098045,0.2366028,0.1964111,0.4598083l-1.7777596,6.4791641  c-0.013401,0.2232056-0.286602,0.2964096-0.5098076,0.2830124s-0.2964096-0.2866058-0.2830124-0.5098114l1.7777557-6.4791641  c0.0133972-0.2232056,0.286602-0.2964096,0.5098076-0.2830124L40.041954,87.2844467z"/><path d="M46.1958008,64.6256714c0.1732063,0.0999985,0.2098083,0.2365952,0.1964111,0.4598083l-2.321537,8.821022  c-0.0133972,0.2232056-0.286602,0.2964096-0.5098076,0.2830124s-0.2964096-0.2866058-0.2830124-0.5098114l2.321537-8.821022  c0.013401-0.2232056,0.286602-0.2964096,0.5098076-0.2830124C46.1091957,64.5756683,46.1958008,64.6256714,46.1958008,64.6256714z"/><path d="M43.2438774,75.7385483c0.1732063,0.1000061,0.2098045,0.2366028,0.1964111,0.4598083l-2.4849358,9.304039  c-0.013401,0.2232056-0.286602,0.2964096-0.5098076,0.2830124s-0.2964134-0.2866058-0.2830124-0.5098114l2.4849358-9.3040314  c0.013401-0.2232056,0.286602-0.2964096,0.5098076-0.2830124C43.1572723,75.6885529,43.2438774,75.7385483,43.2438774,75.7385483z"/><path d="M47.253685,69.3933563c0.1732025,0.1000061,0.2098045,0.2366028,0.2464104,0.3732071  c-0.1937828,1.7356415-0.3875656,3.471283-0.5813484,5.2069244s-0.4741707,3.4212799-0.6679497,5.1569214  c-0.0133972,0.2232056-0.2000008,0.3464127-0.4232063,0.3330154s-0.3464127-0.2000046-0.3330116-0.4232101  c0.1937828-1.7356415,0.3875618-3.471283,0.5813484-5.2069168c0.193779-1.7356415,0.4741669-3.4212799,0.6679497-5.1569214  c0.0133972-0.2232056,0.1999969-0.3464127,0.4232025-0.3330154C47.1670799,69.3433609,47.1670799,69.3433609,47.253685,69.3933563z"/><path d="M45.707016,82.4722672c0.1732063,0.0999985,0.2098083,0.2366028,0.2464104,0.3732071l-0.1669884,1.2892303  c-0.193779,1.7356415-0.3875618,3.471283-0.6679459,5.1569214c-0.013401,0.2232056-0.2000008,0.3464127-0.4232063,0.3330154  s-0.3464127-0.2000046-0.3330154-0.4232025c0.2803879-1.6856461,0.4741707-3.4212875,0.6679497-5.156929l0.1669884-1.2892303  c0.013401-0.2232056,0.2000008-0.346405,0.4232063-0.3330078C45.6204109,82.4222641,45.6204109,82.4222641,45.707016,82.4722672z"/><path d="M42.2369537,67.8825912c0.1732063,0.0999985,0.2964096,0.2865982,0.1964111,0.4598083  c-0.8535881,2.2784576-1.7937813,4.5069199-2.6839752,6.6487808c-0.463398,1.0026245-0.8401947,2.0552521-1.2169876,3.1078796  c-0.0999985,0.1732025-0.286602,0.2964096-0.5098076,0.2830124c-0.1732025-0.0999985-0.2964096-0.2866058-0.2830124-0.5098038  c0.3767967-1.0526276,0.8401947-2.0552597,1.2169876-3.1078873c0.8901939-2.1418533,1.8303871-4.3703156,2.6839752-6.6487808  C41.7905426,67.8557968,41.9771461,67.7325897,42.2369537,67.8825912L42.2369537,67.8825912z"/><path d="M37.2458,80.1275253c0.1732063,0.0999985,0.2964134,0.2865982,0.1964111,0.4598083  c-0.3767929,1.0526276-0.8401909,2.0552521-1.2169876,3.1078796c-0.463398,1.0026321-0.7901917,1.9686508-1.2035866,2.8846817  c-0.0999985,0.1732025-0.286602,0.2964096-0.5098076,0.2830124c-0.1732063-0.0999985-0.2964096-0.2866058-0.2830124-0.5098114  c0.4133987-0.9160233,0.7901917-1.9686508,1.2035904-2.8846741c0.3767929-1.0526276,0.8401909-2.0552597,1.2169838-3.1078873  C36.7993889,80.1007309,36.9859924,79.9775238,37.2458,80.1275253L37.2458,80.1275253z"/><path d="M50.0999985,69.9000015c0.2000008,0,0.4000015,0.1999969,0.4000015,0.3999939v7.4000015  c0,0.2000046-0.2000008,0.4000015-0.4000015,0.4000015s-0.4000015-0.2000046-0.4000015-0.4000015v-7.4000015  C49.6999969,70.0999985,49.8999977,69.8999939,50.0999985,69.9000015z"/><path d="M50.0999985,79.5999985C50.2999992,79.5999985,50.5,79.8000031,50.5,80v6  c0,0.1999969-0.2000008,0.4000015-0.4000015,0.4000015C49.8999977,86.3999939,49.6999969,86.1999969,49.6999969,86v-6  C49.6999969,79.7999954,49.8999977,79.5999985,50.0999985,79.5999985z"/><path d="M50.0999985,62.5C50.2999992,62.5,50.5,62.7000008,50.5,62.9000015v4.9000015  c0,0.2000046-0.2000008,0.4000015-0.4000015,0.4000015S49.6999969,68,49.6999969,67.8000031v-4.9000015  C49.6999969,62.6999969,49.8999977,62.5,50.0999985,62.5z"/><path d="M60,87.2999954c0.2000008,0,0.2999992,0.1000061,0.4000015,0.3000031l1.6999969,6.5  C62.1999969,94.2999954,62,94.5,61.7999992,94.5999985s-0.4000015-0.0999985-0.5-0.3000031l-1.7000008-6.5  c-0.0999985-0.1999969,0.0999985-0.3999939,0.2999992-0.5H60z"/><path d="M54,64.5999985c0.2000008,0,0.2999992,0.0999985,0.4000015,0.3000031l2.4000015,8.7999954  c0.0999985,0.2000046-0.0999985,0.4000015-0.2999992,0.5s-0.4000015-0.0999985-0.5-0.2999954l-2.4000015-8.8000031  c-0.0999985-0.1999969,0.0999985-0.4000015,0.2999992-0.5C53.8999977,64.5999985,54,64.5999985,54,64.5999985z"/><path d="M57,75.6999969c0.2000008,0,0.2999992,0.1000061,0.4000015,0.3000031l2.5,9.2999954  C60,85.5,59.8000031,85.6999969,59.6000023,85.7999954c-0.2000008,0.1000061-0.4000015-0.0999985-0.5-0.2999954l-2.5-9.3000031  c-0.0999985-0.1999969,0.0999985-0.4000015,0.2999992-0.5C56.8999977,75.6999969,57,75.6999969,57,75.6999969z"/><path d="M57.2999992,68.1999969c0.2000008,0,0.2999992,0.1000061,0.4000015,0.2000046  C58.4000015,70,59.1000023,71.5999985,59.7999992,73.2000046c0.7000008,1.5999985,1.2999992,3.1999969,2,4.7999954  c0.0999985,0.2000046,0,0.4000015-0.2000008,0.5s-0.4000015,0-0.5-0.1999969C60.3999977,76.6999969,59.6999969,75.0999985,59,73.5  c-0.7000008-1.5999985-1.2999992-3.1999969-2-4.7999954c-0.0999985-0.2000046,0-0.4000015,0.2000008-0.5  C57.1999969,68.1999969,57.1999969,68.1999969,57.2999992,68.1999969z"/><path d="M62.5,80.3000031c0.2000008,0,0.2999992,0.0999985,0.4000015,0.1999969l0.5,1.2000046  c0.6999969,1.5999985,1.4000015,3.1999969,2,4.7999954c0.0999985,0.2000046,0,0.4000015-0.2000046,0.5  c-0.1999969,0.0999985-0.4000015,0-0.5-0.1999969C64.0999985,85.2000046,63.4000015,83.5999985,62.7000008,82l-0.5-1.1999969  c-0.0999985-0.2000046,0-0.4000015,0.2000008-0.5C62.3999977,80.3000031,62.3999977,80.3000031,62.5,80.3000031z"/><path d="M52.1999969,69.4000015c0.2000008,0,0.4000015,0.0999985,0.4000015,0.2999954  c0.4000015,2.4000015,0.7000008,4.8000031,1,7.0999985c0.0999985,1.1000061,0.2999992,2.2000046,0.5,3.3000031  c0,0.1999969-0.0999985,0.4000015-0.2999992,0.5c-0.2000008,0-0.4000015-0.0999985-0.5-0.3000031  C53.0999985,79.1999969,53,78.0999985,52.7999992,77c-0.2999992-2.3000031-0.5999985-4.6999969-1-7.0999985  C51.7999992,69.5999985,51.8999977,69.4000015,52.1999969,69.4000015L52.1999969,69.4000015z"/><path d="M54,82.5c0.2000008,0,0.4000015,0.0999985,0.4000015,0.2999954c0.2000008,1.1000061,0.2999992,2.2000046,0.5,3.3000031  C55,87.1999969,55.2000008,88.1999969,55.3000031,89.1999969c0,0.1999969-0.0999985,0.4000015-0.2999992,0.5  c-0.2000008,0-0.4000015-0.0999985-0.5-0.3000031c-0.0999985-1-0.2999992-2.0999985-0.4000015-3.0999985  c-0.2000008-1.0999985-0.2999992-2.1999969-0.5-3.2999954C53.5999985,82.6999969,53.6999969,82.5,54,82.5L54,82.5z"/><path d="M60.0182991,67.2155991c0.1732063-0.0999985,0.4464111-0.0267944,0.5464096,0.1464157l3.7000008,6.4085846  c0.0999985,0.1732025,0.0267944,0.4464111-0.1464081,0.5464096c-0.1732101,0.0999985-0.4464149,0.0267944-0.5464134-0.1464081  l-3.7000008-6.4085846C59.7718887,67.5888062,59.8450928,67.3156052,60.0182991,67.2155991z"/><path d="M64.8683014,75.6160507c0.1732025-0.0999985,0.4464111-0.0267944,0.5464096,0.1464081l3,5.1961517  c0.0999985,0.1732025,0.0267944,0.4464111-0.1464157,0.5464096c-0.1732025,0.0999985-0.4464111,0.0267944-0.5464096-0.1464081  l-3-5.1961517C64.6218872,75.9892578,64.6950912,75.7160492,64.8683014,75.6160507z"/><path d="M56.3182983,60.8070183c0.1732063-0.1000023,0.4464149-0.0267982,0.5464134,0.1464081l2.4500008,4.2435265  c0.1000023,0.1732025,0.0267944,0.4464111-0.1464119,0.5464096s-0.4464111,0.0267944-0.5464096-0.1464081l-2.4500008-4.2435265  C56.071888,61.1802216,56.1450958,60.9070168,56.3182983,60.8070183z"/><path d="M77.291954,77.3344421c0.1732025-0.0999985,0.3098068-0.0633926,0.4964066,0.0598068l4.7222443,4.7791672  c0.1865997,0.1232071,0.1133957,0.3964081-0.0098038,0.5830154c-0.1232071,0.1865997-0.3964157,0.1133957-0.5830154-0.0098114  l-4.7222443-4.7791595c-0.1865997-0.1232071-0.1133957-0.3964157,0.0098038-0.5830154L77.291954,77.3344421z"/><path d="M60.7458,60.6756668c0.1732063-0.0999985,0.3098068-0.0633965,0.4964104,0.0598068l6.4784622,6.4210205  c0.1865997,0.1232071,0.1133957,0.3964081-0.0098038,0.5830154c-0.1232071,0.1865997-0.3964157,0.1133957-0.5830154-0.0098114  l-6.4784622-6.4210205c-0.1865997-0.1232033-0.1133995-0.3964081,0.0098076-0.5830116  C60.6591949,60.7256699,60.7458,60.6756668,60.7458,60.6756668z"/><path d="M68.8938751,68.7885513c0.1732101-0.0999985,0.3098068-0.0634003,0.4964142,0.0598068l6.8150635,6.8040314  c0.1865997,0.1232071,0.1133957,0.3964157-0.0098114,0.5830154c-0.1231995,0.1865997-0.3964081,0.1133957-0.5830078-0.0098114  l-6.8150635-6.8040314c-0.1866074-0.1232071-0.1134033-0.3964081,0.0098038-0.5830154  C68.8072739,68.8385544,68.8938751,68.7885513,68.8938751,68.7885513z"/><path d="M65.4036865,62.1433601c0.1732025-0.1000023,0.3098068-0.0633965,0.4464111-0.0267944  c1.4062195,1.0356407,2.8124313,2.0712776,4.2186508,3.1069221s2.7258301,2.1212845,4.1320496,3.1569214  c0.1865997,0.1232071,0.1999969,0.3464127,0.0767975,0.5330124c-0.1232071,0.1866074-0.3464127,0.2000046-0.53302,0.0767975  c-1.4062119-1.0356445-2.8124313-2.0712814-4.2186508-3.106926c-1.4062195-1.0356369-2.7258301-2.1212807-4.1320496-3.1569176  c-0.1865997-0.1232071-0.1999969-0.3464127-0.0767899-0.5330162C65.3170776,62.1933594,65.3170776,62.1933594,65.4036865,62.1433601  z"/><path d="M75.957016,70.0222702c0.1732025-0.1000061,0.3098068-0.0634003,0.4464111-0.0267944l1.0330124,0.7892303  c1.4062195,1.0356369,2.812439,2.0712814,4.1320496,3.1569214c0.1866074,0.1232071,0.2000046,0.346405,0.0767975,0.5330124  c-0.1232071,0.1865997-0.3464127,0.1999969-0.5330124,0.0767975c-1.3196182-1.0856476-2.7258301-2.1212845-4.1320496-3.156929  l-1.0330124-0.7892303c-0.1866074-0.1232071-0.2000046-0.346405-0.0767975-0.5330124  C75.8704147,70.0722656,75.8704147,70.0722656,75.957016,70.0222702z"/><path d="M61.5869522,65.7325897c0.1732063-0.0999985,0.3964119-0.1133957,0.4964104,0.0598068  c1.5464096,1.8784637,3.0062141,3.8069229,4.4160271,5.6487808c0.6365967,0.902626,1.3598022,1.7552567,2.0830078,2.6078796  c0.1000061,0.1732101,0.1134033,0.3964157-0.0098038,0.5830154c-0.1732025,0.0999985-0.3964157,0.1133957-0.5830154-0.0098038  c-0.7232056-0.8526306-1.3598022-1.7552567-2.0830078-2.6078873c-1.4098053-1.8418579-2.8696136-3.7703171-4.4160271-5.6487808  C61.3405418,66.1057968,61.3271446,65.8825912,61.5869522,65.7325897L61.5869522,65.7325897z"/><path d="M69.6958008,76.1775208c0.1732025-0.0999985,0.3964081-0.1133957,0.4964066,0.0598068  c0.7232056,0.8526306,1.3598099,1.7552567,2.0830154,2.6078873c0.6366043,0.902626,1.3098068,1.6686478,1.8964157,2.4846725  c0.0999985,0.1732101,0.1133957,0.3964081-0.0098114,0.5830154c-0.1732025,0.0999985-0.3964081,0.1133957-0.5830154-0.0098114  c-0.5866013-0.8160248-1.3098068-1.6686478-1.8964081-2.4846725c-0.7232056-0.8526306-1.3598099-1.7552567-2.0830154-2.6078873  C69.4493866,76.5507278,69.4359894,76.3275223,69.6958008,76.1775208L69.6958008,76.1775208z"/><path d="M67.2656021,59.9316978c0.0999985-0.1732063,0.3732071-0.2464104,0.5464096-0.1464119l6.4085846,3.7000008  c0.1732101,0.0999985,0.2464142,0.3732033,0.1464157,0.5464134c-0.1000061,0.1732025-0.3732071,0.2464066-0.5464172,0.1464081  l-6.4085846-3.7000008C67.2388077,60.378109,67.1656036,60.1049042,67.2656021,59.9316978z"/><path d="M75.6660461,64.7817001c0.1000061-0.1732101,0.3732071-0.2464142,0.5464096-0.1464157l5.1961594,3  c0.1732025,0.0999985,0.2464066,0.3732071,0.1464081,0.5464172c-0.1000061,0.1732025-0.3732071,0.2464066-0.5464096,0.1464081  l-5.1961594-3C75.6392517,65.2281113,75.5660477,64.9549026,75.6660461,64.7817001z"/><path d="M60.8570175,56.2317009c0.0999985-0.1732063,0.3732033-0.2464142,0.5464096-0.1464119l4.2435303,2.4500008  c0.1732025,0.0999985,0.2464066,0.3732033,0.1464081,0.5464096c-0.1000061,0.1732063-0.3732071,0.2464142-0.5464096,0.1464119  l-4.2435303-2.4500008C60.8302193,56.6781082,60.7570152,56.4049034,60.8570175,56.2317009z"/><path d="M87.2844467,60.0580444c0.0999985-0.1732063,0.2366028-0.2098045,0.4598083-0.1964111l6.4791641,1.7777596  c0.2232056,0.013401,0.2964096,0.286602,0.2830124,0.5098076s-0.2866058,0.2964096-0.5098114,0.2830124l-6.4791641-1.7777557  c-0.2232056-0.0133972-0.2964096-0.286602-0.2830124-0.5098076L87.2844467,60.0580444z"/><path d="M64.6256714,53.9041977c0.0999985-0.1732063,0.2365952-0.2098083,0.4598083-0.1964111l8.821022,2.321537  c0.2232056,0.0133972,0.2964096,0.286602,0.2830124,0.5098076s-0.2866058,0.2964096-0.5098114,0.2830124l-8.821022-2.321537  c-0.2232056-0.013401-0.2964096-0.286602-0.2830124-0.5098076C64.5756683,53.9908028,64.6256714,53.9041977,64.6256714,53.9041977z"/><path d="M75.7385483,56.8561211c0.1000061-0.1732063,0.2366028-0.2098045,0.4598083-0.1964111l9.304039,2.4849358  c0.2232056,0.013401,0.2964096,0.286602,0.2830124,0.5098076s-0.2866058,0.2964134-0.5098114,0.2830124l-9.3040314-2.4849358  c-0.2232056-0.013401-0.2964096-0.286602-0.2830124-0.5098076C75.6885529,56.9427261,75.7385483,56.8561211,75.7385483,56.8561211z"/><path d="M69.3933563,52.8463135c0.1000061-0.1732025,0.2366028-0.2098045,0.3732071-0.2464104  c1.7356415,0.1937828,3.471283,0.3875656,5.2069244,0.5813484s3.4212799,0.4741707,5.1569214,0.6679497  c0.2232056,0.0133972,0.3464127,0.2000008,0.3330154,0.4232063s-0.2000046,0.3464127-0.4232101,0.3330116  c-1.7356415-0.1937828-3.471283-0.3875618-5.2069168-0.5813484c-1.7356415-0.193779-3.4212799-0.4741669-5.1569214-0.6679497  c-0.2232056-0.0133972-0.3464127-0.1999969-0.3330154-0.4232025C69.3433609,52.9329185,69.3433609,52.9329185,69.3933563,52.8463135  z"/><path d="M82.4722672,54.3929825c0.0999985-0.1732063,0.2366028-0.2098083,0.3732071-0.2464104l1.2892303,0.1669884  c1.7356415,0.193779,3.471283,0.3875618,5.1569214,0.6679459c0.2232056,0.013401,0.3464127,0.2000008,0.3330154,0.4232063  s-0.2000046,0.3464127-0.4232025,0.3330154c-1.6856461-0.2803879-3.4212875-0.4741707-5.156929-0.6679497l-1.2892303-0.1669884  c-0.2232056-0.013401-0.346405-0.2000008-0.3330078-0.4232063C82.4222641,54.4795876,82.4222641,54.4795876,82.4722672,54.3929825z"/><path d="M67.8825912,57.8630447c0.0999985-0.1732063,0.2865982-0.2964096,0.4598083-0.1964111  c2.2784576,0.8535881,4.5069199,1.7937813,6.6487808,2.6839752c1.0026245,0.463398,2.0552521,0.8401947,3.1078796,1.2169876  c0.1732025,0.0999985,0.2964096,0.286602,0.2830124,0.5098076c-0.0999985,0.1732025-0.2866058,0.2964096-0.5098038,0.2830124  c-1.0526276-0.3767967-2.0552597-0.8401947-3.1078873-1.2169876c-2.1418533-0.8901939-4.3703156-1.8303871-6.6487808-2.6839752  C67.8557968,58.3094559,67.7325897,58.1228523,67.8825912,57.8630447L67.8825912,57.8630447z"/><path d="M80.1275253,62.8541985c0.0999985-0.1732063,0.2865982-0.2964134,0.4598083-0.1964111  c1.0526276,0.3767929,2.0552521,0.8401909,3.1078796,1.2169876c1.0026321,0.463398,1.9686508,0.7901878,2.8846817,1.2035866  c0.1732025,0.0999985,0.2964096,0.2865982,0.2830124,0.5098038c-0.0999985,0.1732101-0.2866058,0.2964172-0.5098114,0.2830124  c-0.9160233-0.4133987-1.9686508-0.7901917-2.8846741-1.2035828c-1.0526276-0.3767929-2.0552597-0.8401947-3.1078873-1.2169876  C80.1007309,63.3006096,79.9775238,63.114006,80.1275253,62.8541985L80.1275253,62.8541985z"/><path d="M69.9000015,50c0-0.2000008,0.1999969-0.4000015,0.3999939-0.4000015h7.4000015  c0.2000046,0,0.4000015,0.2000008,0.4000015,0.4000015s-0.2000046,0.4000015-0.4000015,0.4000015h-7.4000015  C70.0999985,50.4000015,69.8999939,50.2000008,69.9000015,50z"/><path d="M79.5999985,50c0-0.2000008,0.2000046-0.4000015,0.4000015-0.4000015h6  c0.1999969,0,0.4000015,0.2000008,0.4000015,0.4000015C86.3999939,50.2000008,86.1999969,50.4000015,86,50.4000015h-6  C79.7999954,50.4000015,79.5999985,50.2000008,79.5999985,50z"/><path d="M62.5,50c0-0.2000008,0.2000008-0.4000015,0.4000015-0.4000015h4.9000015  c0.2000046,0,0.4000015,0.2000008,0.4000015,0.4000015S68,50.4000015,67.8000031,50.4000015h-4.9000015  C62.6999969,50.4000015,62.5,50.2000008,62.5,50z"/><path d="M87.2999954,40.0999985c0-0.2000008,0.1000061-0.2999992,0.3000031-0.4000015l6.5-1.6999969  c0.1999969-0.0999985,0.4000015,0.0999985,0.5,0.2999992s-0.0999985,0.4000015-0.3000031,0.5l-6.5,1.7000008  c-0.1999969,0.0999985-0.3999939-0.0999985-0.5-0.2999992V40.0999985z"/><path d="M64.5999985,46.0999985c0-0.2000008,0.0999985-0.2999992,0.3000031-0.4000015l8.7999954-2.4000015  c0.2000046-0.0999985,0.4000015,0.0999985,0.5,0.2999992s-0.0999985,0.4000015-0.2999954,0.5l-8.8000031,2.4000015  c-0.1999969,0.0999985-0.4000015-0.0999985-0.5-0.2999992C64.5999985,46.2000008,64.5999985,46.0999985,64.5999985,46.0999985z"/><path d="M75.6999969,43.0999985c0-0.2000008,0.1000061-0.2999992,0.3000031-0.4000015l9.2999954-2.5  c0.2000046-0.0999985,0.4000015,0.0999985,0.5,0.2999992c0.1000061,0.2000008-0.0999985,0.4000015-0.2999954,0.5l-9.3000031,2.5  c-0.1999969,0.0999985-0.4000015-0.0999985-0.5-0.2999992C75.6999969,43.2000008,75.6999969,43.0999985,75.6999969,43.0999985z"/><path d="M68.1999969,42.7999992c0-0.2000008,0.1000061-0.2999992,0.2000046-0.4000015  C70,41.6999969,71.5999985,40.9999962,73.2000046,40.2999992C74.8000031,39.5999985,76.4000015,39,78,38.2999992  c0.2000046-0.0999985,0.4000015,0,0.5,0.2000008s0,0.4000015-0.1999969,0.5  C76.6999969,39.7000008,75.0999985,40.4000015,73.5,41.0999985c-1.5999985,0.7000008-3.1999969,1.2999992-4.7999954,2  c-0.2000046,0.0999985-0.4000015,0-0.5-0.2000008C68.1999969,42.9000015,68.1999969,42.9000015,68.1999969,42.7999992z"/><path d="M80.3000031,37.5999985c0-0.2000008,0.0999985-0.2999992,0.1999969-0.4000015l1.2000046-0.5  c1.5999985-0.7000008,3.1999969-1.4000015,4.7999954-2c0.2000046-0.0999985,0.4000015,0,0.5,0.2000008s0,0.4000015-0.1999969,0.5  c-1.5999985,0.5999985-3.2000046,1.2999992-4.8000031,2l-1.1999969,0.5c-0.2000046,0.0999985-0.4000015,0-0.5-0.2000008  C80.3000031,37.7000008,80.3000031,37.7000008,80.3000031,37.5999985z"/><path d="M69.4000015,47.9000015C69.4000015,47.7000008,69.5,47.5,69.6999969,47.5  c2.4000015-0.4000015,4.8000031-0.7000008,7.0999985-1C77.9000015,46.4000015,79,46.2000008,80.0999985,46  c0.1999969,0,0.4000015,0.0999985,0.5,0.2999992c0,0.2000008-0.0999985,0.4000015-0.3000031,0.5  C79.1999969,47,78.0999985,47.0999985,77,47.2999992c-2.3000031,0.2999992-4.6999969,0.5999985-7.0999985,1  C69.5999985,48.2999992,69.4000015,48.2000008,69.4000015,47.9000015L69.4000015,47.9000015z"/><path d="M82.5,46.0999985c0-0.2000008,0.0999985-0.4000015,0.2999954-0.4000015  c1.1000061-0.2000008,2.2000046-0.2999992,3.3000031-0.5c1.0999985-0.0999985,2.0999985-0.2999992,3.0999985-0.4000015  c0.1999969,0,0.4000015,0.0999985,0.5,0.2999992c0,0.2000008-0.0999985,0.4000015-0.3000031,0.5  c-1,0.0999985-2.0999985,0.2999992-3.0999985,0.4000015c-1.0999985,0.2000008-2.1999969,0.2999992-3.2999954,0.5  C82.6999969,46.5,82.5,46.4000015,82.5,46.0999985L82.5,46.0999985z"/><path d="M67.2155991,40.0816994c-0.0999985-0.1732063-0.0267944-0.4464111,0.1464157-0.5464096l6.4085846-3.7000008  c0.1732025-0.1000023,0.4464111-0.0267944,0.5464096,0.1464119s0.0267944,0.4464111-0.1464081,0.5464096l-6.4085846,3.7000008  C67.5888062,40.3281097,67.3156052,40.2549057,67.2155991,40.0816994z"/><path d="M75.6160507,35.2317009c-0.0999985-0.1732063-0.0267944-0.4464149,0.1464081-0.5464134l5.1961517-3  c0.1732025-0.1000004,0.4464111-0.0267944,0.5464096,0.1464119s0.0267944,0.4464111-0.1464081,0.5464096l-5.1961517,3  C75.9892578,35.4781113,75.7160492,35.4049034,75.6160507,35.2317009z"/><path d="M60.8070183,43.7817001c-0.1000023-0.1732063-0.0267982-0.4464149,0.1464081-0.5464134l4.2435265-2.4500008  c0.1732025-0.1000023,0.4464111-0.0267944,0.5464096,0.1464119s0.0267944,0.4464111-0.1464081,0.5464096l-4.2435265,2.4500008  C61.1802216,44.0281105,60.9070168,43.9549026,60.8070183,43.7817001z"/><path d="M77.3344421,22.8080463c-0.0999985-0.1732063-0.0633926-0.3098068,0.0598068-0.4964123l4.7791672-4.7222404  c0.1232071-0.1865997,0.3964081-0.1133976,0.5830154,0.0098076c0.1865997,0.1232052,0.1133957,0.3964119-0.0098114,0.5830135  l-4.7791595,4.7222424c-0.1232071,0.1866016-0.3964157,0.1133995-0.5830154-0.0098057L77.3344421,22.8080463z"/><path d="M60.6756668,39.3541985c-0.0999985-0.1732063-0.0633965-0.3098068,0.0598068-0.4964104l6.4210205-6.4784622  c0.1232071-0.1866035,0.3964081-0.1133995,0.5830154,0.0098076c0.1865997,0.1232033,0.1133957,0.3964119-0.0098114,0.5830116  l-6.4210205,6.4784622c-0.1232033,0.1865997-0.3964081,0.1133995-0.5830116-0.0098076  C60.7256699,39.4408035,60.6756668,39.3541985,60.6756668,39.3541985z"/><path d="M68.7885513,31.2061214c-0.0999985-0.1732044-0.0634003-0.3098068,0.0598068-0.4964104l6.8040314-6.8150635  c0.1232071-0.1866016,0.3964157-0.1133995,0.5830154,0.0098076c0.1865997,0.1232052,0.1133957,0.3964119-0.0098114,0.5830116  l-6.8040314,6.8150654c-0.1232071,0.1866016-0.3964081,0.1133976-0.5830154-0.0098076  C68.8385544,31.2927265,68.7885513,31.2061214,68.7885513,31.2061214z"/><path d="M62.1433601,34.6963158c-0.1000023-0.1732063-0.0633965-0.3098068-0.0267944-0.4464111  c1.0356407-1.4062195,2.0712776-2.812439,3.1069221-4.2186546c1.0356445-1.4062176,2.1212845-2.725832,3.1569214-4.1320496  c0.1232071-0.1866016,0.3464127-0.2000008,0.5330124-0.0767937c0.1866074,0.1232052,0.2000046,0.3464108,0.0767975,0.5330124  c-1.0356445,1.4062195-2.0712814,2.8124371-3.106926,4.2186508c-1.0356369,1.4062195-2.1212807,2.7258339-3.1569176,4.1320496  c-0.1232071,0.1866035-0.3464127,0.2000008-0.5330162,0.0767975C62.1933594,34.7829208,62.1933594,34.7829208,62.1433601,34.6963158  z"/><path d="M70.0222702,24.1429825c-0.1000061-0.1732063-0.0634003-0.3098068-0.0267944-0.4464111l0.7892303-1.0330143  c1.0356369-1.4062176,2.0712814-2.8124371,3.1569214-4.1320515c0.1232071-0.1865997,0.346405-0.1999989,0.5330124-0.0767937  c0.1865997,0.1232052,0.1999969,0.3464127,0.0767975,0.5330124c-1.0856476,1.3196144-2.1212845,2.7258339-3.156929,4.1320515  l-0.7892303,1.0330143c-0.1232071,0.1866016-0.346405,0.1999989-0.5330124,0.0767937  C70.0722656,24.2295876,70.0722656,24.2295876,70.0222702,24.1429825z"/><path d="M65.7325897,38.5130463c-0.0999985-0.1732063-0.1133957-0.3964119,0.0598068-0.4964104  c1.8784637-1.5464096,3.8069229-3.006218,5.6487808-4.4160271c0.902626-0.6366005,1.7552567-1.3598061,2.6078796-2.0830097  c0.1732101-0.1000004,0.3964157-0.1133995,0.5830154,0.0098057c0.0999985,0.1732063,0.1133957,0.3964119-0.0098038,0.5830116  c-0.8526306,0.7232056-1.7552567,1.3598099-2.6078873,2.0830154c-1.8418579,1.4098053-3.7703171,2.8696098-5.6487808,4.4160233  C66.1057968,38.7594566,65.8825912,38.7728539,65.7325897,38.5130463L65.7325897,38.5130463z"/><path d="M76.1775208,30.4041996c-0.0999985-0.1732063-0.1133957-0.3964119,0.0598068-0.4964123  c0.8526306-0.7232056,1.7552567-1.3598061,2.6078873-2.0830116c0.902626-0.6366024,1.6686478-1.3098068,2.4846725-1.8964119  c0.1732101-0.1000004,0.3964081-0.1133995,0.5830154,0.0098076c0.0999985,0.1732044,0.1133957,0.3964119-0.0098114,0.5830116  c-0.8160248,0.5866013-1.6686478,1.3098068-2.4846725,1.8964119c-0.8526306,0.7232056-1.7552567,1.359808-2.6078873,2.0830116  C76.5507278,30.65061,76.3275223,30.6640091,76.1775208,30.4041996L76.1775208,30.4041996z"/><path d="M59.9316978,32.8343964c-0.1732063-0.0999985-0.2464104-0.3732071-0.1464119-0.5464096l3.7000008-6.4085884  c0.0999985-0.1732063,0.3732033-0.2464085,0.5464134-0.1464081c0.1732025,0.1000004,0.2464066,0.3732052,0.1464081,0.5464096  l-3.7000008,6.4085884C60.378109,32.8611908,60.1049042,32.9343987,59.9316978,32.8343964z"/><path d="M64.7817001,24.4339504c-0.1732101-0.1000004-0.2464142-0.3732071-0.1464157-0.5464115l3-5.1961517  c0.0999985-0.1732063,0.3732071-0.2464104,0.5464172-0.14641c0.1732025,0.1000004,0.2464066,0.3732052,0.1464081,0.5464115  l-3,5.1961517C65.2281113,24.4607449,64.9549026,24.5339508,64.7817001,24.4339504z"/><path d="M56.2317009,39.242981c-0.1732063-0.0999985-0.2464142-0.3732033-0.1464119-0.5464096l2.4500008-4.2435265  c0.0999985-0.1732063,0.3732033-0.2464104,0.5464096-0.1464081c0.1732063,0.0999985,0.2464142,0.3732033,0.1464119,0.5464096  l-2.4500008,4.2435265C56.6781082,39.2697792,56.4049034,39.3429832,56.2317009,39.242981z"/><path d="M60.0580444,12.8155537c-0.1732063-0.1000004-0.2098045-0.2366028-0.1964111-0.4598083l1.7777596-6.4791641  c0.013401-0.2232041,0.286602-0.296411,0.5098076-0.2830129c0.2232056,0.0133977,0.2964096,0.286603,0.2830124,0.5098076  l-1.7777557,6.4791656c-0.0133972,0.2232046-0.286602,0.2964106-0.5098076,0.2830133L60.0580444,12.8155537z"/><path d="M53.9041977,35.4743309c-0.1732063-0.1000023-0.2098083-0.2366028-0.1964111-0.4598083l2.321537-8.8210239  c0.0133972-0.2232056,0.286602-0.2964115,0.5098076-0.2830124c0.2232056,0.0133972,0.2964096,0.286602,0.2830124,0.5098057  l-2.321537,8.8210258c-0.013401,0.2232018-0.286602,0.2964096-0.5098076,0.2830124  C53.9908028,35.5243301,53.9041977,35.4743309,53.9041977,35.4743309z"/><path d="M56.8561211,24.3614483c-0.1732063-0.1000004-0.2098045-0.2366028-0.1964111-0.4598083l2.4849358-9.3040361  c0.013401-0.2232046,0.286602-0.2964106,0.5098076-0.2830133s0.2964134,0.2866039,0.2830124,0.5098076l-2.4849358,9.3040371  c-0.013401,0.2232056-0.286602,0.2964115-0.5098076,0.2830124C56.9427261,24.4114494,56.8561211,24.3614483,56.8561211,24.3614483z"/><path d="M52.8463135,30.7066383c-0.1732025-0.1000004-0.2098045-0.2366028-0.2464104-0.3732071  c0.1937828-1.7356415,0.3875656-3.4712811,0.5813484-5.2069206c0.1937828-1.7356415,0.4741707-3.4212818,0.6679497-5.1569214  c0.0133972-0.2232056,0.2000008-0.3464108,0.4232063-0.3330135s0.3464127,0.2000008,0.3330116,0.4232063  c-0.1937828,1.7356415-0.3875618,3.471283-0.5813484,5.2069206c-0.193779,1.7356415-0.4741669,3.4212818-0.6679497,5.1569214  c-0.0133972,0.2232056-0.1999969,0.3464088-0.4232025,0.3330116C52.9329185,30.7566395,52.9329185,30.7566395,52.8463135,30.7066383  z"/><path d="M54.3929825,17.6277313c-0.1732063-0.1000004-0.2098083-0.2366028-0.2464104-0.3732071l0.1669884-1.2892313  c0.193779-1.7356415,0.3875618-3.471282,0.6679459-5.1569223c0.013401-0.2232037,0.2000008-0.3464098,0.4232063-0.3330126  c0.2232056,0.0133982,0.3464127,0.2000008,0.3330154,0.4232054c-0.2803879,1.6856403-0.4741707,3.4212818-0.6679497,5.1569233  l-0.1669884,1.2892303c-0.013401,0.2232056-0.2000008,0.3464108-0.4232063,0.3330135  C54.4795876,17.6777325,54.4795876,17.6777325,54.3929825,17.6277313z"/><path d="M57.8630447,32.217411c-0.1732063-0.1000023-0.2964096-0.2866039-0.1964111-0.4598083  c0.8535881-2.2784615,1.7937813-4.5069218,2.6839752-6.6487808c0.463398-1.0026283,0.8401947-2.0552559,1.2169876-3.1078835  c0.0999985-0.1732063,0.286602-0.2964096,0.5098076-0.2830124c0.1732025,0.1000004,0.2964096,0.2866039,0.2830124,0.5098057  c-0.3767967,1.0526295-0.8401947,2.0552578-1.2169876,3.1078835c-0.8901939,2.1418571-1.8303871,4.3703175-2.6839752,6.6487808  C58.3094559,32.2442017,58.1228523,32.3674088,57.8630447,32.217411L57.8630447,32.217411z"/><path d="M62.8541985,19.9724751c-0.1732063-0.1000004-0.2964134-0.2866039-0.1964111-0.4598064  c0.3767929-1.0526295,0.8401909-2.0552559,1.2169876-3.1078854c0.463398-1.0026274,0.7901878-1.9686518,1.2035866-2.8846788  c0.0999985-0.1732044,0.2865982-0.2964106,0.5098038-0.2830124c0.1732101,0.1000004,0.2964172,0.286603,0.2830124,0.5098076  c-0.4133987,0.9160242-0.7901917,1.9686527-1.2035828,2.8846788c-0.3767929,1.0526295-0.8401947,2.0552559-1.2169876,3.1078835  C63.3006096,19.9992714,63.114006,20.1224766,62.8541985,19.9724751L62.8541985,19.9724751z"/><text x="0" y="115.0999985" fill="#000000" font-size="5px" font-weight="bold" font-family="'Helvetica Neue', Helvetica, Arial-Unicode, Arial, Sans-serif">Created by Goker Cebeci</text><text x="0" y="120.0999985" fill="#000000" font-size="5px" font-weight="bold" font-family="'Helvetica Neue', Helvetica, Arial-Unicode, Arial, Sans-serif">from the Noun Project</text></svg>